<svg id="Layer_1" data-name="Layer 1" xmlns="http://www.w3.org/2000/svg" viewBox="0 0 843.02 822.61"><defs><style>.cls-1{fill:#b67043;}</style></defs><path class="cls-1" d="M637.06,1013.5c-50.32,0-99.78-10.94-147-32.53C375,928.34,302.83,839.64,275.69,717.32c-21.47-96.79-5.48-189.05,47.54-274.2C378.42,354.48,458.89,297.56,562.39,274c38.5-8.78,78.37-8.9,116.94-9l8.07,0c14.76-.06,30.56-.44,46.14-2.81,25.38-3.85,44.88-18.63,62.17-34,11.12-9.9,20.77-16.81,30.37-21.75a35.9,35.9,0,0,1,16.5-4.22,33.32,33.32,0,0,1,21.48,8.2c11,9.26,14.83,21.93,11,36.64-1.36,5.16-3.86,10.15-6.29,15l-.67,1.35c2.29-10,1.42-19.71-2.59-27.8a31.46,31.46,0,0,0-18.8-16.24,41.66,41.66,0,0,0-13-2.15,41.23,41.23,0,0,0-24,7.95c-9.54,6.69-18.06,14.11-28.2,23.11-22,19.57-47.88,29.13-79,29.23h-3.12c-25.91.09-52.69.17-79,1.33a343.81,343.81,0,0,0-152.89,43.43C391.58,364.22,337.26,425.26,306,503.56c-38.58,96.66-36.4,193,6.48,286.31C357,886.65,431,952,532.58,984c36.48,11.51,73.21,17.34,109.15,17.34,62,0,123.54-17.29,183-51.39,65.81-37.74,115.89-90.36,148.84-156.42a339.42,339.42,0,0,0,35.86-158.66,705.46,705.46,0,0,1,2.55-74.71c2-21.79,12.28-39.67,30.68-53.12,25.88-18.93,30.2-38.66,14.91-68.1a102.83,102.83,0,0,0-8.92-14.45c-5.11-6.82-10.71-13.45-16.13-19.85l-.31-.37c-13.46-15.91-13.69-27.56-.87-42.95,7.16-8.6,15.07-16.83,22.71-24.8,4.18-4.36,8.52-8.88,12.68-13.4,14.81-16.1,22.83-32,25.23-49.95A57.59,57.59,0,0,0,1078,227a58.34,58.34,0,0,0-59-18.41c-17.51,4.54-31.6,15.15-45.22,25.41l-4.16,3.13-.68.5c-27.29,20.38-55.52,41.46-86.58,57.11A68.51,68.51,0,0,1,866,300.55a16.19,16.19,0,0,1-3.34.39c-2.32,0-4-.67-4.93-2-1.19-1.63-1.26-4.24-.2-7.55a107.47,107.47,0,0,1,5.52-13.15l1.29-2.74c-1.16,6-.75,10.2,1.23,12.61a6.54,6.54,0,0,0,5.33,2.24,21,21,0,0,0,8-2c19.15-8.32,35.08-16.77,48.72-25.83,16-10.62,31.71-22.18,46.93-33.36,9-6.64,18.37-13.51,27.66-20.1,16.5-11.71,31.09-17.16,45.91-17.16a61.18,61.18,0,0,1,18.46,2.93c16.91,5.37,30,16.58,36.78,31.57,7.22,15.9,6.89,34.55-.93,52.53-6.46,14.83-17,26.73-27.23,37.65-2.82,3-5.73,6-8.54,9-7.85,8.17-16,16.63-23.14,25.59-11.42,14.24-11.4,26.84.06,42.12,3.53,4.7,7.16,9.44,10.67,14,5,6.57,10.25,13.37,15.22,20.16a57.29,57.29,0,0,1,6,11.38c10.85,25.49,6.24,43.51-15,58.41-24.46,17.19-36.5,41.09-37.88,75.22-.59,14.56-.52,29.39-.44,43.73.05,8.73.09,17.76,0,26.63-.95,81.27-26.87,154.76-77,218.41C885.55,936.77,808,985.2,714.5,1005.15A371.8,371.8,0,0,1,637.06,1013.5Z" transform="translate(-265.98 -191.39)"/><path d="M1048.08,192.39a60.56,60.56,0,0,1,18.31,2.91c16.77,5.33,29.73,16.44,36.48,31.3,7.16,15.76,6.83,34.28-.94,52.12-6.43,14.76-16.93,26.62-27.14,37.5-2.82,3-5.72,6-8.53,9-7.86,8.18-16,16.65-23.17,25.63-11.59,14.45-11.57,27.23.05,42.73,3.53,4.7,7.16,9.44,10.67,14,5,6.58,10.24,13.38,15.22,20.17a56.46,56.46,0,0,1,6,11.28c10.74,25.23,6.18,43.06-14.8,57.8-24.26,17.05-36.72,41.78-38.09,75.61-.59,14.57-.51,29.41-.44,43.75.05,8.73.09,17.76,0,26.63-.47,40.51-7.19,79.43-20,115.65s-31.95,70.71-57,102.45c-29.62,37.58-64,68.75-102.21,92.62s-81.44,41.17-128.1,51.13a371.59,371.59,0,0,1-77.34,8.34c-50.26,0-99.64-10.93-146.78-32.48-115-52.56-187-141.15-214.1-263.31-21.44-96.66-5.47-188.79,47.47-273.82,27.62-44.37,61.86-81.12,101.77-109.25,39.58-27.89,85.7-48,137.08-59.7,38.44-8.77,78.29-8.89,116.83-9l8.08,0c14.77-.06,30.59-.44,46.21-2.81,25.5-3.88,45.08-18.71,62.42-34.16,11.09-9.86,20.7-16.75,30.27-21.68a35.41,35.41,0,0,1,16.27-4.16c7.64,0,14.76,2.72,21.16,8.09,10.88,9.12,14.62,21.62,10.79,36.12a69.15,69.15,0,0,1-5.31,13,40.82,40.82,0,0,0-3.31-24.56,32,32,0,0,0-19.09-16.5,42.43,42.43,0,0,0-13.2-2.17,41.74,41.74,0,0,0-24.28,8c-9.56,6.7-18.08,14.13-28.24,23.14-22,19.49-47.68,29-78.66,29.11h-3.13c-25.91.09-52.69.17-79,1.33a344.11,344.11,0,0,0-153.1,43.5c-76,42.15-130.36,103.28-161.65,181.69-38.63,96.78-36.45,193.24,6.48,286.7C356.56,887,430.71,952.4,532.43,984.48c36.53,11.53,73.3,17.37,109.3,17.37,62,0,123.72-17.31,183.27-51.46,65.9-37.78,116-90.48,149-156.63A339.74,339.74,0,0,0,1010,634.87a704.41,704.41,0,0,1,2.55-74.66c1.94-21.64,12.2-39.39,30.48-52.76,26.12-19.11,30.49-39,15.06-68.73a103.83,103.83,0,0,0-9-14.52c-5.11-6.82-10.72-13.45-16.13-19.86l-.33-.38c-13.26-15.68-13.49-27.15-.86-42.31,7.15-8.58,15-16.81,22.67-24.77,4.2-4.37,8.53-8.88,12.7-13.41,14.88-16.19,22.94-32.14,25.36-50.23a58.13,58.13,0,0,0-14.11-46.6,58.81,58.81,0,0,0-59.51-18.56c-17.61,4.56-31.73,15.2-45.4,25.49l-4.16,3.13-.67.49c-27.28,20.38-55.49,41.45-86.51,57.08a68.42,68.42,0,0,1-16.23,5.79,15.75,15.75,0,0,1-3.23.38c-2.15,0-3.67-.6-4.53-1.78-1.09-1.49-1.13-4-.13-7.1a105.86,105.86,0,0,1,5.34-12.74c-.44,4.37.18,7.59,1.84,9.62a7,7,0,0,0,5.72,2.43,21.35,21.35,0,0,0,8.16-2.07c19.18-8.33,35.14-16.8,48.79-25.87,16-10.63,31.73-22.19,46.95-33.38,9-6.63,18.37-13.5,27.66-20.09,16.41-11.65,30.91-17.07,45.62-17.07m0-1c-16.66,0-31.88,7.09-46.2,17.25-25,17.71-49.12,36.54-74.58,53.46-15.23,10.12-31.84,18.48-48.64,25.78a20.28,20.28,0,0,1-7.76,2c-5.89,0-7.87-5.13-6-14.36.21-1.07.28-2.16.41-3.24-2.78,6.31-6.12,12.45-8.21,19s.1,10.19,5.61,10.19a16.54,16.54,0,0,0,3.44-.4,68.73,68.73,0,0,0,16.47-5.88c31.35-15.8,59.33-36.76,87.33-57.66,15.3-11.43,30.05-23.49,49.21-28.45a58.2,58.2,0,0,1,14.64-1.89c34,0,62.51,30.28,57.74,66-2.63,19.7-12.08,35.51-25.11,49.68-11.76,12.78-24.3,24.9-35.4,38.22-13.24,15.89-12.42,27.88.87,43.59,5.6,6.63,11.22,13.26,16.42,20.2a103.54,103.54,0,0,1,8.88,14.38c15,28.86,11.38,48.35-14.76,67.46-18.62,13.62-28.91,31.52-30.89,53.48a706.69,706.69,0,0,0-2.55,74.77,337.38,337.38,0,0,1-35.81,158.43c-33.5,67.16-83.72,119-148.64,156.21-58.83,33.72-119.87,51.32-182.77,51.32-35.75,0-72.11-5.68-109-17.32-101.39-32-175.41-97.26-219.79-193.87-43.12-93.87-44.75-190-6.47-285.91,31.75-79.54,86.42-139.69,161.22-181.19a342.24,342.24,0,0,1,152.66-43.37c27.33-1.21,54.73-1.25,82.09-1.34,30.13-.09,56.65-9.23,79.33-29.36,9.07-8.05,18.24-16.12,28.14-23.07a39.88,39.88,0,0,1,36.6-5.74c18.93,6.21,27.06,27.11,19.41,49.14,3.27-7.24,7.58-14.2,9.58-21.76,3.76-14.27.47-27.43-11.12-37.15a33.56,33.56,0,0,0-21.8-8.32,36.57,36.57,0,0,0-16.73,4.27c-11,5.67-21.17,13.54-30.47,21.83-18.14,16.15-37.43,30.19-61.91,33.91-15.16,2.3-30.7,2.74-46.07,2.8-41.93.18-83.93-.33-125.12,9.07C459.21,297,378.68,353.12,322.8,442.86,270,527.64,253.64,620.2,275.21,717.43c27.29,123.05,100,211.57,214.66,264,47.61,21.77,96.85,32.57,147.19,32.57a370.53,370.53,0,0,0,77.54-8.36c94.18-20.11,171.34-68.55,230.9-144.11,50.42-64,76.2-137.09,77.15-218.71.27-23.45-.5-46.93.45-70.35,1.22-30.36,11.19-56.23,37.67-74.83,22-15.47,25.69-34.24,15.14-59a57,57,0,0,0-6.07-11.48c-8.45-11.53-17.32-22.76-25.9-34.2-11-14.68-11.59-27.13-.07-41.51,9.74-12.16,21-23.14,31.65-34.53s21-23.19,27.32-37.79c15.8-36.29.24-73.22-36.15-84.77a61,61,0,0,0-18.61-3Z" transform="translate(-265.98 -191.39)"/><path class="cls-1" d="M637.58,985c-45.55,0-90.45-9.76-133.45-29C395.72,907.46,328.22,824.93,303.51,710.68c-22.05-101.92-.75-196.33,63.31-280.61C421.57,358,495.56,313.74,586.72,298.46c26.64-4.46,53-5.07,75.28-5.07,8.6,0,17.22.11,26,.22,3,0,6.09.08,9.13.08,19.2,0,35-1.57,49.73-9.22,9.81-5.11,19-11.83,27.84-18.34,2.55-1.87,5.09-3.74,7.66-5.57,3.51-2.52,6.93-5.32,10.23-8A131.92,131.92,0,0,1,808.19,241a36.6,36.6,0,0,1,18.73-5.16c7.71,0,14.77,2.41,19.89,6.8,11.2,9.61,14.5,24.54,8.84,39.94a91.37,91.37,0,0,1-4.42,9.65c-.27.53-.54,1.06-.8,1.59.31-2.16.63-4.4.82-6.61.92-10.41-2-19.89-8.23-26.7a31.52,31.52,0,0,0-23.63-10,40.81,40.81,0,0,0-9.57,1.18c-12.15,3-21.47,10.61-29.74,18.44-17.39,16.48-33.08,28.23-53.14,32-12.61,2.37-26.76,3.47-44.53,3.48-48.06,0-94.94,1.22-140,15.52-57.72,18.3-107.29,49.82-147.32,93.69-47.18,51.7-75.52,112.58-84.24,180.95C300,680.56,318.58,758.36,366,827c55.69,80.65,133.22,128.5,230.44,142.22A328.85,328.85,0,0,0,642,972.47c54.52,0,108.44-14.25,160.28-42.36A349.43,349.43,0,0,0,918.86,828.48c33.52-45.88,53.27-96.12,58.71-149.33,1.6-15.71,1.72-31.81,1.82-47.39.07-10.07.15-20.49.62-30.69a330.23,330.23,0,0,1,4.77-45.13c2.89-15.61,11.25-28.09,24.85-37.11a74.24,74.24,0,0,0,9.62-7.91c12.36-11.66,16.16-25.79,11.31-42-5.1-17-15.61-30.25-27.8-44.54-2.1-2.46-4.23-5-6.06-7.6-5.71-8.22-6.38-16.51-2-24a141.25,141.25,0,0,1,15-20.23c4.33-5,8.93-10,13.39-14.74,7.5-8,15.25-16.36,21.89-25.29,14.64-19.7,16-48.7,3.23-67.45a54.9,54.9,0,0,0-45.34-24,59.19,59.19,0,0,0-28.74,7.66c-11,6.13-21.34,13.79-31.36,21.19-4.09,3-8.31,6.15-12.52,9.13q-4,2.83-8,5.7c-20.46,14.57-41.62,29.64-65.28,39.78l-2,.89c-2.72,1.25-5.53,2.54-8.22,2.54a6.87,6.87,0,0,1-5-2.13c-3.65-3.62-1.68-7.83.23-11.91.5-1.06,1-2.17,1.42-3.23a63.53,63.53,0,0,1,3.65-7.63c.16-.31.32-.62.49-.93,0,.15,0,.31-.08.46-1.1,5.72-.7,9.78,1.19,12.07a6.24,6.24,0,0,0,5.07,2.13,19.83,19.83,0,0,0,7.52-1.9c17.71-7.64,32.55-15.45,45.37-23.89,14.71-9.68,29.16-20.28,43.14-30.54,7.53-5.52,15.32-11.24,23.06-16.74C985.06,235,1000,226,1017.22,226a52.74,52.74,0,0,1,10.76,1.13c17.88,3.71,31.82,14.06,39.26,29.14,7.76,15.74,7.3,35-1.29,52.77-7,14.49-18.17,25.92-29,37q-3,3.08-6,6.17l-.66.68c-5.86,6.13-11.92,12.46-17.07,19.31-11.45,15.22-11,27.25,1.74,42.91a333.61,333.61,0,0,1,24.31,33.57c3.46,5.55,6,12.65,7.51,21.1,2.72,15.05-3.21,28.44-16.26,36.73-32.09,20.4-37.17,52.35-37.91,80.91-.27,10.26-.14,20.7,0,30.8.15,11.49.29,23.37-.14,35-2.53,67.3-24,128.68-64,182.42-53.39,71.84-124.28,118.8-210.72,139.59A343.83,343.83,0,0,1,637.58,985Z" transform="translate(-265.98 -191.39)"/><path d="M1017.22,226.51a53.09,53.09,0,0,1,10.66,1.11c17.72,3.68,31.54,13.94,38.91,28.88,7.7,15.6,7.23,34.67-1.29,52.33-7,14.42-18.1,25.82-28.89,36.85-2,2-4,4.1-6,6.17l-.65.68c-5.87,6.13-12,12.48-17.12,19.36-11.62,15.45-11.13,27.65,1.75,43.52a332.09,332.09,0,0,1,24.27,33.52c3.43,5.5,5.94,12.54,7.45,20.93,2.68,14.84-3.17,28-16,36.22C998,526.6,992.88,558.7,992.14,587.4c-.27,10.27-.14,20.71,0,30.81.15,11.49.3,23.36-.14,35-2.52,67.2-24,128.48-63.88,182.14C901.55,871.09,870.4,901,835.49,924.1s-74.66,40.29-117.82,50.66a343.4,343.4,0,0,1-80.08,9.73c-45.49,0-90.32-9.75-133.25-29C396.08,907.07,328.67,824.66,304,710.57c-11-50.7-11.13-100.21-.47-147.14,10.6-46.63,32-91.39,63.68-133.06C421.89,358.42,495.77,314.21,586.8,299c26.61-4.45,52.94-5.06,75.2-5.06,8.59,0,17.21.11,26,.22,3,0,6.07.08,9.14.08,19.28,0,35.15-1.58,50-9.28,9.85-5.12,19-11.86,27.9-18.38,2.51-1.84,5.1-3.74,7.66-5.57,3.53-2.52,7-5.32,10.26-8a131.36,131.36,0,0,1,15.51-11.48,36.18,36.18,0,0,1,18.48-5.09c7.59,0,14.54,2.37,19.56,6.68,11,9.46,14.29,24.19,8.7,39.39a81.77,81.77,0,0,1-3.84,8.49c.16-1.21.3-2.43.41-3.65.94-10.55-2-20.17-8.36-27.08a32,32,0,0,0-24-10.14,40.86,40.86,0,0,0-9.69,1.2c-12.26,3-21.65,10.68-30,18.56-17.32,16.42-33,28.12-52.88,31.86-12.58,2.36-26.7,3.46-44.44,3.47-48.1,0-95,1.22-140.18,15.54-57.81,18.33-107.45,49.9-147.54,93.83-47.25,51.78-75.63,112.75-84.36,181.22-10.82,84.9,7.76,162.81,55.24,231.57C421.34,908.08,499,956,596.35,969.73A328.33,328.33,0,0,0,642,973c54.6,0,108.61-14.27,160.52-42.42a349.87,349.87,0,0,0,116.7-101.77c33.58-46,53.36-96.28,58.81-149.58,1.6-15.73,1.71-31.85,1.82-47.44.07-10.06.15-20.47.62-30.67A329.41,329.41,0,0,1,985.27,556c2.87-15.47,11.16-27.85,24.64-36.79a75.3,75.3,0,0,0,9.69-7.95c12.5-11.8,16.35-26.11,11.44-42.52-5.13-17.13-15.67-30.39-27.93-44.76-2.06-2.41-4.18-4.91-6-7.52-3.9-5.61-7.39-14.24-1.94-23.45a141.06,141.06,0,0,1,14.91-20.16c4.32-5,8.92-9.95,13.38-14.73,7.5-8,15.26-16.38,21.92-25.33,14.76-19.86,16.16-49.11,3.24-68a55.37,55.37,0,0,0-45.75-24.23,59.66,59.66,0,0,0-29,7.72c-11,6.15-21.38,13.82-31.41,21.23-4.09,3-8.32,6.14-12.52,9.12-2.69,1.89-5.36,3.8-8,5.7-20.44,14.56-41.57,29.61-65.17,39.73-.65.28-1.32.59-2,.9-2.67,1.22-5.43,2.49-8,2.49a6.39,6.39,0,0,1-4.69-2c-3.4-3.37-1.59-7.24.34-11.33.5-1.08,1-2.2,1.43-3.27a52.8,52.8,0,0,1,2.69-5.83c-.56,4.55,0,7.89,1.71,9.94a6.7,6.7,0,0,0,5.45,2.31,20.16,20.16,0,0,0,7.71-1.94c17.75-7.65,32.61-15.48,45.45-23.93,14.72-9.69,29.18-20.29,43.16-30.55,7.53-5.53,15.32-11.24,23.06-16.74,12.24-8.71,27.06-17.61,44.17-17.61m0-1c-16.66,0-31,8-44.75,17.79-22.1,15.72-43.56,32.38-66.19,47.28-14.2,9.34-29.66,17.1-45.29,23.84a19.31,19.31,0,0,1-7.32,1.86c-5.58,0-7.46-4.84-5.77-13.61.2-1.06.28-2.15.41-3.23-1.84,3.68-4,7.24-5.43,11.06-1.9,5.08-6.44,10.81-1.54,15.67a7.35,7.35,0,0,0,5.4,2.28c3.48,0,7.15-2.07,10.4-3.47,26.75-11.46,49.84-28.88,73.39-45.54,14.52-10.26,28.41-21.66,43.84-30.28a58.33,58.33,0,0,1,28.5-7.6,54.11,54.11,0,0,1,44.93,23.79c12.24,17.95,11.73,46.75-3.22,66.87-10.57,14.22-23.65,26.54-35.26,40a143.22,143.22,0,0,0-15,20.3c-4.87,8.22-3.41,16.77,2,24.53a96.46,96.46,0,0,0,6.09,7.63c11.44,13.41,22.51,27,27.7,44.37,4.86,16.23,1,30-11.17,41.5a73.12,73.12,0,0,1-9.55,7.85c-13.61,9-22.17,21.79-25.07,37.44A335.34,335.34,0,0,0,979.51,601c-1.21,26,.2,52.23-2.44,78.06C971.46,734,951,783.66,918.45,828.19A347.64,347.64,0,0,1,802.08,929.67C751.37,957.17,698,972,642,972a325.32,325.32,0,0,1-45.55-3.23c-97.18-13.71-174.4-61.33-230.1-142-48-69.51-65.73-147.2-55.07-230.87,8.79-69,37.19-129.26,84.11-180.67,40.57-44.46,89.72-75.36,147.1-93.55,45.66-14.48,92.64-15.48,139.88-15.5,14.89,0,30-.75,44.62-3.49,21.41-4,37.92-17.45,53.39-32.11,8.55-8.1,17.7-15.45,29.51-18.32a40.19,40.19,0,0,1,9.46-1.17c19.22,0,33.23,15.1,31.37,36.14-.29,3.23-.83,6.45-1.26,9.67,2.23-4.69,4.84-9.23,6.62-14.09,5.75-15.63,2.23-30.87-9-40.49-5.22-4.48-12.51-6.92-20.21-6.92a37.28,37.28,0,0,0-19,5.23c-9.22,5.5-17.06,13.27-25.85,19.56-11.59,8.29-22.87,17.34-35.43,23.87-15.44,8-32.45,9.17-49.5,9.17-3,0-6.09,0-9.12-.08-8.68-.11-17.36-.22-26-.22-25.23,0-50.42.9-75.37,5.08-90.49,15.16-164.71,58.77-220.21,131.8-63.59,83.67-85.57,178.51-63.4,281,24.91,115.15,93.29,197.49,200.91,245.66,43.42,19.44,88.13,29,133.66,29a342.81,342.81,0,0,0,80.32-9.76C805,954.79,875.52,907.81,928.91,836,969.1,781.87,990.46,720.68,993,653.26c.82-21.92-.42-43.9.15-65.84.83-32.13,7.56-61.35,37.68-80.5,12.62-8,19.33-21.46,16.48-37.24-1.32-7.35-3.68-15-7.58-21.28a334.81,334.81,0,0,0-24.34-33.62c-12.24-15.08-13.33-26.87-1.73-42.29,5.32-7.08,11.55-13.52,17.69-19.95,12.89-13.46,26.76-26.07,35.06-43.28,17.63-36.54.08-74.64-38.32-82.61a52.92,52.92,0,0,0-10.86-1.14Z" transform="translate(-265.98 -191.39)"/><path class="cls-1" d="M637.19,956.27c-51.62,0-101.69-13.39-148.81-39.8C400.66,867.3,347.26,793,329.66,695.58c-17.54-97.06,6.19-185,70.54-261.37C448.72,376.62,512,340.59,588.26,327.1c25.57-4.52,51.22-5.15,75.13-5.15q7.22,0,14.42.07c2.05,0,4.11,0,6.17.07,3,0,6.08.08,9.13.08,16.5,0,30.15-1.3,43.15-7.62,9.49-4.62,18.34-10.94,26.89-17.06,2.09-1.49,4.18-3,6.27-4.46,3.62-2.53,7.12-5.37,10.5-8.12,5.06-4.11,10.29-8.36,16-11.6a31.74,31.74,0,0,1,15.8-4.51,28.18,28.18,0,0,1,18.36,7c9.74,8.11,12.59,19.54,8.48,34a69.79,69.79,0,0,1-5,11.77L832.3,324l.36-2.61c1.94-13.94-1.06-23.7-9.47-30.73a29.33,29.33,0,0,0-18.9-7.21,30.83,30.83,0,0,0-13.46,3.23,95.86,95.86,0,0,0-24.5,17c-21.65,20.83-46.2,30.95-75.06,30.95l-2.06,0c-9.78-.16-17.23-.24-24.18-.24-18.44,0-33.54.55-47.53,1.71-90.21,7.48-163,46.58-216.24,116.21C331.79,543,317.37,644,358.41,752.24,384,819.64,430.93,872.15,498,908.31a293.37,293.37,0,0,0,140.64,35.5c7,0,14.05-.24,21.1-.7,63.66-4.22,121.69-26.67,172.48-66.73,81.45-64.24,121.38-148.26,118.68-249.74-.38-14.69,0-30.23,1.16-46.18C953.85,556,963,539,981,526.88c19-12.85,23.47-30.61,12.81-51.37-6.21-12.1-14.74-23.33-22.27-32.71-12.46-15.55-12.41-26.07.2-40.17,5-5.55,10.22-11,15.32-16.24,3.53-3.64,7.18-7.4,10.69-11.17,8.62-9.24,17.92-20.76,21.59-36.15,5.21-21.91-1.58-36.5-8.2-44.88-9.26-11.72-24.6-19-40-19a47.64,47.64,0,0,0-8.91.83c-12,2.31-22,9.1-31.6,15.67l-13,8.88C896.16,315.18,874,330.29,852,344.76c-6.09,4-13.28,6.49-20.12,8.69a12.79,12.79,0,0,1-3.89.69,4.73,4.73,0,0,1-4.08-1.76c-1.1-1.54-1.14-4-.1-7a117.28,117.28,0,0,1,5.53-12.69c.16-.34.33-.67.49-1-1,3.58-1.54,7.35,2.37,9.35a13.72,13.72,0,0,0,6.21,1.26,19.06,19.06,0,0,0,9-2.1c24.16-13.61,43.83-25.37,61.89-37,8.28-5.33,16.3-11.33,24.07-17.12,6.1-4.56,12.4-9.27,18.79-13.62,12.1-8.26,23.37-12.27,34.47-12.27a49.34,49.34,0,0,1,14.88,2.37c14.17,4.49,25.18,13.95,31,26.65,6.17,13.44,6,29.16-.42,44.27-6,14.06-16.5,25.09-26.64,35.76l-.8.85c-1.9,2-3.83,4-5.76,6-5.27,5.41-10.72,11-15.51,17-11.47,14.34-11.21,25.83,1,41l1.1,1.37c7.81,9.73,15.89,19.79,21.82,30.75,12.27,22.72,8.7,39.18-11.58,53.4-20.76,14.55-30.55,35-31.74,66.24-.41,10.74-.3,21.68-.21,32.27.11,11.42.22,23.24-.31,34.83-2.94,64-23.71,121.42-61.74,170.79-51,66.28-117.56,108.51-197.67,125.51A322.63,322.63,0,0,1,637.19,956.27Z" transform="translate(-265.98 -191.39)"/><path d="M986.63,260.63a49,49,0,0,1,14.73,2.34c14,4.45,24.94,13.82,30.71,26.38,6.11,13.32,6,28.9-.43,43.87-6,14-16.43,25-26.54,35.61l-.81.85c-1.89,2-3.85,4-5.75,5.95-5.28,5.42-10.74,11-15.54,17-11.65,14.57-11.39,26.23,1,41.59L985,435.6c7.81,9.71,15.87,19.75,21.78,30.68C1019,488.72,1015.42,505,995.4,519c-20.91,14.65-30.77,35.2-32,66.63-.41,10.76-.3,21.7-.21,32.29.11,11.42.22,23.23-.31,34.81C960,716.62,939.25,774,901.29,823.26c-25.29,32.83-54.64,60-87.23,80.81-33,21-70,36-110.15,44.53a322.4,322.4,0,0,1-66.72,7.17c-51.54,0-101.52-13.37-148.57-39.74C401,866.94,347.72,792.74,330.15,695.5c-17.51-96.92,6.18-184.72,70.43-261a309.08,309.08,0,0,1,84.15-70.42c31-17.56,65.89-29.85,103.61-36.52,25.54-4.52,51.17-5.14,75-5.14,5.13,0,10.16,0,14.42.07,2.05,0,4.1,0,6.16.07,3,0,6.09.08,9.14.08,14.33,0,29.51-.93,43.37-7.67,9.53-4.64,18.4-11,27-17.11,2-1.46,4.17-3,6.26-4.45,3.63-2.54,7.14-5.39,10.53-8.14,5-4.1,10.25-8.33,15.87-11.55a31.24,31.24,0,0,1,15.56-4.45,27.71,27.71,0,0,1,18,6.92c9.57,8,12.37,19.23,8.32,33.44a68.23,68.23,0,0,1-4.82,11.39c1.86-13.91-1.23-23.7-9.7-30.77A29.79,29.79,0,0,0,804.3,283a31.31,31.31,0,0,0-13.69,3.28A96.62,96.62,0,0,0,766,303.3c-21.55,20.73-46,30.81-74.71,30.81l-2.06,0c-9.78-.16-17.24-.23-24.18-.23-18.45,0-33.57.54-47.58,1.7-90.34,7.5-163.22,46.66-216.59,116.41-69.58,90.91-84,192-42.92,300.45,25.59,67.51,72.64,120.11,139.85,156.33a293.81,293.81,0,0,0,140.87,35.56c7,0,14.08-.24,21.14-.7,63.76-4.23,121.88-26.72,172.75-66.83,81.58-64.35,121.57-148.51,118.87-250.15-.38-14.68,0-30.2,1.16-46.13,1.76-24.28,10.87-41.18,28.69-53.21,19.28-13,23.76-31,13-52-6.23-12.14-14.78-23.4-22.32-32.81C959.5,427,959.55,417,972.1,403c4.95-5.54,10.22-11,15.31-16.22,3.53-3.64,7.18-7.41,10.7-11.18,8.66-9.29,18-20.87,21.7-36.37,5.27-22.11-1.6-36.84-8.29-45.31-9.35-11.84-24.84-19.19-40.44-19.19a47.86,47.86,0,0,0-9,.84c-12.13,2.33-22.12,9.15-31.79,15.75l-.9.61q-6.07,4.16-12.16,8.3c-21.37,14.6-43.47,29.69-65.46,44.15-6,4-13.18,6.44-20,8.63a12.55,12.55,0,0,1-3.74.67,4.37,4.37,0,0,1-3.68-1.55c-1-1.4-1-3.74,0-6.59a96.41,96.41,0,0,1,4.38-10.28c-.16,2.46.49,4.77,3.31,6.22a14.3,14.3,0,0,0,6.44,1.31,19.72,19.72,0,0,0,9.21-2.16c24.16-13.62,43.84-25.38,61.91-37,8.29-5.34,16.33-11.34,24.1-17.14,6.09-4.55,12.39-9.26,18.77-13.61,12-8.19,23.2-12.18,34.19-12.18m0-1c-12.49,0-23.92,5-34.76,12.36-14.51,9.9-28.08,21.22-42.84,30.73-20.19,13-40.93,25.2-61.87,37a18.75,18.75,0,0,1-8.71,2,13.47,13.47,0,0,1-6-1.2c-5.29-2.71-1.61-8.92-.9-13.68-2.77,6.09-6,12-8.19,18.3-2,5.85,0,9.47,4.65,9.47a13.29,13.29,0,0,0,4.05-.72c7-2.24,14.17-4.76,20.23-8.75,26.1-17.15,51.83-34.85,77.64-52.45,10.06-6.86,20-13.84,32.31-16.21a47,47,0,0,1,8.82-.82c27.49,0,57.32,23.11,47.76,63.27-3.39,14.23-11.75,25.5-21.46,35.92-8.6,9.21-17.63,18-26,27.41-13.14,14.71-12.57,25.41-.22,40.82,8.22,10.25,16.25,21,22.21,32.63,10.46,20.36,6.29,38-12.64,50.72-19.61,13.24-27.53,31.83-29.13,54-1.11,15.36-1.56,30.83-1.15,46.23,2.74,103.25-38.08,185.9-118.5,249.33-50.39,39.74-108,62.37-172.2,66.62q-10.61.71-21.07.7a292.23,292.23,0,0,1-140.4-35.44c-65.09-35.08-113.16-86.61-139.38-155.81C318.29,645,331.83,543.8,401.65,452.57c54-70.58,127.28-108.66,215.89-116,15.76-1.31,31.62-1.7,47.49-1.7,8.06,0,16.12.1,24.17.23l2.07,0c29.51,0,54.12-10.61,75.4-31.08A95.88,95.88,0,0,1,791,287.13,30.41,30.41,0,0,1,804.3,284,28.72,28.72,0,0,1,822.87,291c9.47,7.92,10.91,18.74,9.29,30.28-.27,1.93-.51,3.86-.76,5.77,2.58-5.71,5.89-11.2,7.59-17.16,3.69-12.93,2.34-25.33-8.64-34.48a28.82,28.82,0,0,0-18.68-7.15,32.26,32.26,0,0,0-16,4.58c-9.49,5.43-17.46,13.42-26.48,19.74-10.78,7.56-21.36,15.77-33.1,21.48-13.58,6.6-28.19,7.57-42.93,7.57-5.1,0-10.21-.12-15.3-.15q-7.2-.06-14.42-.07c-25.18,0-50.35.76-75.22,5.16C512.7,340,449.26,375.2,399.82,433.88,335.72,510,311.51,598,329.17,695.67c17.75,98.25,71.82,172.38,159,221.23,47.44,26.6,97.33,39.87,149.06,39.87a321.63,321.63,0,0,0,66.92-7.2c81.32-17.26,147.31-59.92,198-125.7C940.82,773.58,961,716.12,963.92,652.8c1-22.33-.33-44.76.52-67.11,1-26.22,8-49.32,31.53-65.84,20.89-14.65,23.89-31.54,11.73-54.05-6.22-11.51-14.72-21.91-23-32.19-11.71-14.58-12.63-25.74-1-40.34,6.49-8.1,14.06-15.35,21.24-22.9,10.62-11.18,21.34-22.24,27.54-36.76,13.09-30.67-.51-62-30.9-71.59a49.59,49.59,0,0,0-15-2.39Z" transform="translate(-265.98 -191.39)"/><path class="cls-1" d="M638.24,927.44c-63,0-120.79-19.9-171.8-59.17C399.7,816.91,362.06,749.41,354.57,667.65c-9.08-99,24.79-182.45,100.65-248.06,51.15-44.25,112.74-67.21,183-68.27,2.24,0,4.51-.18,6.71-.33,1.85-.13,3.77-.26,5.66-.32,1.34,0,2.78-.06,4.53-.06l3.59,0,3.59,0h.5v-.27l9.48,0,10,0q6,0,12,.06h1c22.5,0,42.54-8.13,61.29-24.83L760,322.5a141.49,141.49,0,0,1,13.93-11.57c5.59-3.88,10.81-6.34,15.51-7.31a34.45,34.45,0,0,1,7-.74c8.73,0,16.44,3.75,21.14,10.28,5.18,7.19,6.26,17,3,26.85-.93,2.79-2.12,5.55-3.28,8.23a90.56,90.56,0,0,0-3.8,9.89c-1.2,4.05-1,7.25.44,9.24a5.64,5.64,0,0,0,4.74,2.09,14.6,14.6,0,0,0,5.07-1.07c9.61-3.64,22.09-8.76,33.32-16.05,15-9.73,29.84-20.2,44.21-30.32,7.08-5,14.41-10.16,21.66-15.17,8.92-6.15,18.62-12.19,30.62-12.53l1.51,0c16.21,0,30.36,7.34,38.82,20.14,8.83,13.36,10,30.21,3.15,46.22-5.74,13.46-15.88,23.89-25.7,34l-2.2,2.27c-6.6,6.8-13,13.53-18.53,21-7.79,10.49-7.65,20.06.46,31,2.43,3.29,5,6.55,7.5,9.71,4.12,5.2,8.37,10.59,12.06,16.2a71.36,71.36,0,0,1,8.4,18.77c5.58,18.72-5.21,30.4-15.23,36.9-17.6,11.42-26.64,28.37-28.47,53.34A376,376,0,0,0,934.6,623c1.4,45.79-6.11,88.21-22.31,126.08C896,787.2,870.35,821.79,836.16,851.84c-49.77,43.76-107.1,68.78-170.41,74.37C656.51,927,647.26,927.44,638.24,927.44Zm-3.08-563.35c-5.89,0-10.74.15-15.25.48a280.75,280.75,0,0,0-38.68,5.49c-135.5,29-228,155-215.07,293.05C373.85,745.47,411,812,476.53,860.7c48.81,36.29,102.68,54.7,160.11,54.7a297.19,297.19,0,0,0,62.83-7c64.38-14,119.11-47.86,162.69-100.74,34.94-42.41,54.58-91.07,58.37-144.64,1-14.09,1.05-28.47,1.1-42.38,0-6.61.06-13.44.19-20.14.45-24.14,4.35-48.72,29.6-64.94,13.81-8.88,17.61-22.49,11.3-40.46a42.39,42.39,0,0,0-5-10.71c-3.93-5.54-8.1-11-12.14-16.36-2.91-3.85-5.93-7.83-8.83-11.78-6.58-9-6.77-16.1-.64-24.57a157.11,157.11,0,0,1,11.5-13.56c2.67-2.91,5.43-5.92,8-9,2.11-2.56,4.35-5.13,6.52-7.62,6.15-7.07,12.51-14.38,17-22.56,6.75-12.22,8.48-25.63,4.87-37.76a43.46,43.46,0,0,0-21.62-26,47.44,47.44,0,0,0-22.24-5.88c-9.59,0-19.21,3.32-28.58,9.89-5.51,3.86-11.09,7.83-16.48,11.67-13.73,9.76-27.92,19.85-42.3,29.12-10.48,6.76-22.52,13-37.89,19.67a11.79,11.79,0,0,1-4.56,1.13,3.74,3.74,0,0,1-3.24-1.44c-1.15-1.59-1.13-4.4,0-7.9.86-2.57,2-5.13,3.07-7.59a73.82,73.82,0,0,0,3.78-9.93c2.74-10.14,1.3-19.56-4-26.54-4.86-6.34-12.4-9.84-21.25-9.84a36.08,36.08,0,0,0-4.82.34c-6.26.85-12,3.8-15.72,6.13-5.24,3.28-9.94,7.58-14.48,11.74l-1.17,1.07c-18.41,16.81-35.94,24.91-55.16,25.5-4.33.14-8.95.2-14.54.2-4,0-8,0-11.93-.06s-7.95-.06-11.93-.06h-.5v2c-3.81,0-7.67-.07-11.41-.13C643.17,364.16,639.13,364.09,635.16,364.09Z" transform="translate(-265.98 -191.39)"/><path d="M955,294.8c16,0,30,7.26,38.4,19.91,8.74,13.23,9.87,29.9,3.11,45.76-5.7,13.37-15.81,23.76-25.59,33.81-.74.75-1.48,1.51-2.21,2.27-6.61,6.82-13,13.56-18.57,21.06-7.95,10.7-7.81,20.45.46,31.62,2.43,3.29,5,6.55,7.51,9.71,4.11,5.2,8.36,10.58,12,16.17a70.77,70.77,0,0,1,8.34,18.65c5.49,18.41-5.14,29.92-15,36.33-17.73,11.51-26.85,28.58-28.69,53.73A376.8,376.8,0,0,0,934.1,623c1.39,45.73-6.1,88.07-22.27,125.87-16.3,38.09-41.87,72.61-76,102.62-49.69,43.68-106.93,68.66-170.13,74.24-9.22.82-18.45,1.23-27.46,1.23-62.88,0-120.58-19.87-171.49-59.06C400.12,816.6,362.54,749.22,355.06,667.61,346,568.79,379.81,485.47,455.54,420c51.06-44.17,112.54-67.1,182.74-68.15,2.25,0,4.53-.18,6.73-.34,1.85-.12,3.77-.25,5.64-.31,1.35,0,2.79-.06,4.53-.06l3.58,0,3.59,0h1v-.27l9,0,10,0c4.61,0,8.41,0,12,.06h1c22.63,0,42.78-8.17,61.62-25l3.41-3.07a140.47,140.47,0,0,1,13.89-11.54c5.54-3.84,10.69-6.28,15.32-7.23a34.26,34.26,0,0,1,6.88-.73c8.57,0,16.13,3.67,20.73,10.07,5.09,7.06,6.14,16.68,2.89,26.4-.92,2.77-2.11,5.53-3.25,8.19-.64,1.48-1.29,3-1.9,4.51,2.26-9.73.69-18.74-4.49-25.51-5-6.46-12.64-10-21.65-10a37.12,37.12,0,0,0-4.89.34c-6.35.86-12.16,3.85-15.91,6.2-5.28,3.31-10,7.63-14.57,11.81l-1.15,1.06c-18.33,16.72-35.75,24.79-54.85,25.37-4.32.14-8.94.2-14.53.2-4,0-8,0-11.92-.06s-7.95-.06-11.93-.06h-1v2c-3.64,0-7.32-.07-10.9-.13-3.91-.07-8-.14-11.93-.14-5.9,0-10.76.16-15.29.48a279.88,279.88,0,0,0-38.74,5.5C445.37,398.66,352.74,524.88,365.66,663.16c7.71,82.51,44.91,149.1,110.58,197.94,48.89,36.36,102.86,54.8,160.4,54.8a297.57,297.57,0,0,0,62.94-7c64.48-14,119.32-47.94,163-100.92,35-42.48,54.68-91.24,58.47-144.92,1-14.11,1.06-28.5,1.11-42.43,0-6.59.06-13.41.19-20.11.45-24,4.32-48.43,29.37-64.53,14-9,17.9-22.82,11.51-41a43.25,43.25,0,0,0-5.05-10.84c-3.94-5.54-8.11-11.05-12.14-16.37-2.92-3.85-5.93-7.82-8.83-11.78-6.43-8.78-6.62-15.72-.65-24A156,156,0,0,1,948,418.49c2.68-2.92,5.44-5.93,8-9,2.12-2.56,4.35-5.13,6.52-7.62,6.16-7.09,12.54-14.42,17.08-22.64,6.82-12.34,8.57-25.88,4.92-38.14a43.94,43.94,0,0,0-21.86-26.34,47.94,47.94,0,0,0-22.48-5.94c-9.7,0-19.41,3.35-28.86,10-5.52,3.86-11.1,7.83-16.49,11.67-13.72,9.76-27.91,19.85-42.28,29.11-10.46,6.75-22.48,13-37.82,19.63a11.38,11.38,0,0,1-4.36,1.09,3.28,3.28,0,0,1-2.84-1.24c-1-1.43-1-4.14.13-7.44.85-2.55,2-5.09,3-7.55.6-1.36,1.21-2.75,1.78-4.15-.68,3.33-.35,6,1,7.8a6.12,6.12,0,0,0,5.14,2.29,15.15,15.15,0,0,0,5.25-1.1c9.64-3.66,22.14-8.79,33.41-16.1,15-9.74,29.85-20.21,44.22-30.33,7.09-5,14.42-10.16,21.67-15.16,8.85-6.12,18.48-12.12,30.35-12.45l1.49,0m0-1-1.52,0c-11.82.33-21.55,6.17-30.89,12.62-22,15.17-43.5,30.95-65.86,45.48-10.25,6.65-21.76,11.65-33.22,16a14,14,0,0,1-4.9,1c-4.81,0-6.66-4-4.7-10.68,1.83-6.2,5-12,7.07-18.11,6.83-20.43-5.31-37.79-24.57-37.79a34.61,34.61,0,0,0-7.08.75c-5.53,1.14-11,4.12-15.69,7.38-6.21,4.31-11.73,9.64-17.4,14.69-17.42,15.54-37.33,24.71-61,24.71h-1q-6-.06-12-.06c-6.64,0-13.29,0-19.94,0v.27c-2.39,0-4.78,0-7.17,0-1.52,0-3,0-4.55.06-4.13.12-8.24.59-12.37.65-69.24,1-131,23.11-183.37,68.39C379.26,484.63,344.94,568.06,354.07,667.7c7.6,83,46.11,150.21,112.07,201,51.35,39.53,109.13,59.27,172.1,59.27q13.62,0,27.55-1.23c64.88-5.73,121.84-31.53,170.7-74.49C905.56,791.5,937.9,714.76,935.1,623a379.79,379.79,0,0,1,.66-39.06c1.58-21.63,8.66-40.26,28.24-53,13-8.46,20.32-21.08,15.44-37.46A72.62,72.62,0,0,0,971,474.56c-5.94-9-13.14-17.22-19.58-25.93-7.85-10.6-8.29-19.88-.46-30.43a212,212,0,0,1,18.49-20.95c10.74-11.08,21.8-21.85,28-36.39,14.2-33.29-7.4-67.06-42.43-67.06ZM810.37,381.25a12.4,12.4,0,0,0,4.76-1.17,262.54,262.54,0,0,0,38-19.71c20-12.92,39.26-27.11,58.8-40.8,9.16-6.42,18.61-9.81,28.29-9.8a46.79,46.79,0,0,1,22,5.82c22.4,11.87,29.95,38.85,16.54,63.12-6.08,11-15.38,20.27-23.5,30.1-6.34,7.68-13.7,14.58-19.51,22.61-6.47,8.94-5.81,16.33.65,25.15,6.91,9.44,14.19,18.61,21,28.14a42.12,42.12,0,0,1,4.92,10.59c5.82,16.57,3.44,30.52-11.1,39.87-24.62,15.82-29.34,39.28-29.83,65.35-.4,20.83.17,41.73-1.29,62.49-3.84,54.27-23.75,102.48-58.25,144.36C819.1,859.16,765.12,893.68,699.37,908a295.65,295.65,0,0,1-62.73,6.95c-57.22,0-110.8-18.16-159.81-54.61C411,811.32,374.31,745,366.66,663.06c-12.78-136.73,80.41-263.74,214.67-292.51a279.29,279.29,0,0,1,38.61-5.48c5.06-.37,10.14-.48,15.22-.48,7.94,0,15.89.27,23.83.27v-2c8,0,15.9.12,23.85.12,4.86,0,9.71-.05,14.57-.2,22-.67,39.67-11.2,55.48-25.63,5-4.53,9.94-9.22,15.58-12.76A40.68,40.68,0,0,1,784,318.34a35.62,35.62,0,0,1,4.76-.33c18.68,0,30.18,15.87,24.8,35.75-1.62,6-4.84,11.56-6.83,17.49-2.07,6.16-.58,10,3.66,10Z" transform="translate(-265.98 -191.39)"/><path class="cls-1" d="M638,898.91c-57.85,0-111.39-19.21-159.13-57.11C430,803,399.24,753.27,387.44,694c-19.15-96.26,7.38-179.1,78.85-246.23,46.31-43.48,103.43-66.31,169.79-67.84,3.1-.07,6.24-.25,9.28-.42s6-.34,8.94-.41c2-.05,4.2-.08,6.84-.08l5.37,0c1.8,0,3.59,0,5.39,0h.5v-.69c2.73,0,5.51.07,8.2.13,2.86.07,5.82.14,8.73.14,4.09,0,7.45-.14,10.6-.43,15.38-1.42,29.88-8.22,44.36-20.79,1.54-1.34,3.05-2.72,4.57-4.09a104.26,104.26,0,0,1,12.83-10.46c4-2.62,10.14-5.89,16.43-6.58a31,31,0,0,1,3.16-.17c8,0,14.65,3.35,18.86,9.44,4.8,6.91,5.55,16.21,2.06,25.49-.74,2-1.61,4-2.45,5.89a84,84,0,0,0-3.39,8.58c-1.09,3.5-.92,6.47.47,8.36a5.49,5.49,0,0,0,4.65,2.12,12,12,0,0,0,4.16-.84c8.49-3.14,19.49-7.55,29.36-13.91,21.73-14,42.53-28.58,61.78-42.25,9.82-7,19.67-10.52,29.25-10.52,10.85,0,21,4.76,29.36,13.75,14.76,15.89,11.53,33.26,6.21,45-3.87,8.58-10.22,16.27-16.35,23.71-1.27,1.53-2.53,3.06-3.76,4.59-3.2,3.95-6.78,7.72-10.26,11.35-3.75,3.94-7.63,8-11,12.35-7.44,9.47-7.39,18.29.14,28.62,2.13,2.91,4.34,5.83,6.48,8.65,4.55,6,9.26,12.2,13.33,18.64A48.17,48.17,0,0,1,946.28,512c2.11,11.39-2.49,21.69-12.3,27.56-24.23,14.49-28.11,37.83-28.71,60.91-.19,7.38-.15,14.89-.11,22.16.05,10.47.1,21.3-.52,31.91-4.07,68.82-33.17,127.76-86.49,175.18C777.08,866.23,729.93,888.53,678,896A282.35,282.35,0,0,1,638,898.91Zm6.4-507.12c-49.81,0-94.56,12.39-133,36.83-71.52,45.45-110.92,110.7-117.11,193.93-5,67.06,15,127.08,59.41,178.4S554.34,880.74,621,885.76c6.93.52,13.88.78,20.66.78,65.94,0,125.33-24.7,176.51-73.42C864,769.45,888.84,715.86,892,653.82c.55-10.92.66-22,.76-32.79.08-7.62.15-15.5.39-23.24.74-24.55,8.6-40.12,25.48-50.48,13.26-8.14,17.31-23,10.33-37.92a138.71,138.71,0,0,0-18.33-28.3c-11.44-14-11.55-20.72-.57-34.25,1.68-2.08,3.55-4.07,5.35-6l1.16-1.24c2.24-2.41,4.55-4.82,6.79-7.15,4.72-4.91,9.6-10,14-15.3,10.87-13,14.74-28.08,11.18-43.66-4-17.47-20-29.67-38.83-29.67a43.71,43.71,0,0,0-24.57,7.6c-23.7,16.05-48.19,32.24-74.85,49.48-4.42,2.86-9.79,4.42-14.94,5.69a10.71,10.71,0,0,1-2.47.34,3.53,3.53,0,0,1-3-1.23c-.81-1.11-.84-2.94-.09-5.31.84-2.66,2-5.29,3-7.84s2.19-5.19,3.05-7.88c2.86-9,1.8-18-2.91-24.61a22.12,22.12,0,0,0-17.9-9.23h-.68c-7.5,0-14.84,3.37-18.54,5.38-5,2.71-9.37,6.73-13.6,10.62-1.05,1-2.1,1.94-3.16,2.88-15.58,13.93-31.51,20.91-48.69,21.35-3.82.1-7.9.14-12.84.14-3.5,0-7,0-10.51,0s-7-.05-10.51-.05H656v.68H644.41Z" transform="translate(-265.98 -191.39)"/><path d="M926,329c10.71,0,20.73,4.7,29,13.59,14.58,15.69,11.38,32.85,6.13,44.48-3.85,8.52-10.17,16.19-16.29,23.6-1.26,1.53-2.52,3.06-3.76,4.59-3.18,3.94-6.76,7.7-10.23,11.33-3.76,3.94-7.65,8-11.08,12.38-7.59,9.67-7.55,18.69.14,29.23,2.13,2.91,4.34,5.83,6.49,8.66,4.54,6,9.24,12.18,13.3,18.6a47.62,47.62,0,0,1,6.07,16.61c2.07,11.17-2.44,21.28-12.07,27-24.43,14.61-28.35,38.11-29,61.32-.19,7.39-.15,14.91-.11,22.18.05,10.47.1,21.29-.52,31.88-2,34.66-10.49,67.07-25.09,96.33-14.31,28.68-34.91,55.1-61.23,78.51-41,36.47-88.06,58.73-139.87,66.17A281.49,281.49,0,0,1,638,898.41c-57.74,0-111.17-19.18-158.82-57-48.78-38.73-79.48-88.36-91.26-147.5-19.12-96.08,7.36-178.77,78.7-245.77,46.22-43.4,103.23-66.18,169.46-67.71,3.11-.07,6.25-.25,9.29-.42s6-.34,8.94-.41c2-.05,4.19-.08,6.83-.08l5.36,0c1.8,0,3.59,0,5.39,0h1v-.69c2.56,0,5.16.07,7.69.13,2.86.07,5.83.14,8.74.14,4.1,0,7.48-.14,10.65-.43,15.48-1.43,30.08-8.27,44.63-20.91,1.55-1.35,3.09-2.75,4.59-4.1A104.69,104.69,0,0,1,762,343.3c4-2.6,10-5.83,16.22-6.5a29.57,29.57,0,0,1,3.1-.17c7.78,0,14.33,3.28,18.45,9.22,4.7,6.78,5.43,15.91,2,25-.74,2-1.6,3.95-2.44,5.86-.75,1.71-1.51,3.45-2.2,5.22,1.86-8.18.54-16.14-3.76-22.19A22.58,22.58,0,0,0,775,350.34h-.69c-7.62,0-15,3.41-18.78,5.44-5.06,2.74-9.45,6.79-13.7,10.7-1,1-2.1,1.93-3.15,2.87-15.5,13.84-31.32,20.78-48.37,21.22-3.82.1-7.9.14-12.83.14-3.5,0-7.06,0-10.5,0s-7-.05-10.52-.05h-1v.68H644.41c-49.91,0-94.75,12.41-133.29,36.91C439.46,473.74,400,539.12,393.78,622.51c-5,67.2,15,127.35,59.53,178.76s100.85,80,167.6,85c6.94.53,13.9.79,20.7.79,66.08,0,125.58-24.75,176.86-73.56,46-43.76,70.86-97.47,74-159.64.55-10.93.66-22.05.76-32.81.08-7.61.15-15.49.39-23.22.73-24.36,8.52-39.81,25.25-50.08,13.49-8.28,17.61-23.41,10.51-38.55A139,139,0,0,0,911,480.78c-11.23-13.75-11.34-20.34-.57-33.63,1.66-2,3.52-4,5.32-6l1.17-1.24c2.23-2.4,4.55-4.82,6.79-7.15,4.72-4.92,9.6-10,14-15.32,11-13.1,14.88-28.35,11.28-44.09-4-17.7-20.21-30.06-39.31-30.06A44.19,44.19,0,0,0,884.87,351c-23.7,16.05-48.18,32.23-74.84,49.47-4.36,2.82-9.69,4.37-14.79,5.62a9.73,9.73,0,0,1-2.35.33,3.07,3.07,0,0,1-2.63-1c-.7-1-.71-2.68,0-4.86.84-2.63,1.94-5.25,3-7.79.71-1.68,1.44-3.4,2.09-5.15-.45,2.69-.09,5,1.09,6.58a6,6,0,0,0,5.05,2.32,12.86,12.86,0,0,0,4.34-.87c8.5-3.14,19.54-7.57,29.45-14,21.75-14,42.55-28.59,61.8-42.26,9.74-6.92,19.48-10.43,29-10.43m0-1c-9.57,0-19.63,3.58-29.54,10.62-20.33,14.44-40.8,28.73-61.76,42.23-9,5.8-19.16,10.13-29.26,13.86a11.64,11.64,0,0,1-4,.81c-4.54,0-6.48-3.92-4.64-9.83,1.54-4.94,4-9.58,5.83-14.44,7-18.62-3.47-35.61-21.39-35.61a29.32,29.32,0,0,0-3.21.18c-5.76.62-11.71,3.43-16.65,6.65-6.31,4.11-11.73,9.61-17.46,14.59-12.75,11.07-27.05,19.1-44.07,20.67-3.51.33-7,.43-10.56.43-5.8,0-11.63-.27-17.43-.27v.69c-3.59,0-7.17-.05-10.75-.05-2.29,0-4.58,0-6.86.08-6.08.15-12.14.69-18.22.83-65.17,1.51-122.71,23.45-170.12,68-71.6,67.24-98.18,150.29-79,246.69,12,60.33,43.42,109.83,91.62,148.09,47.85,38,101.18,57.22,159.44,57.22a280.84,280.84,0,0,0,40.08-2.93c53.36-7.66,100.15-30.62,140.39-66.41C871,783.33,901,725.14,905.14,654.54c1.06-18,.17-36.07.63-54.09.62-24.22,5-46.47,28.47-60.49,9.8-5.86,14.75-16.15,12.53-28.08a48.66,48.66,0,0,0-6.2-17c-6-9.48-13.2-18.22-19.83-27.31-7.19-9.85-7.68-18.45-.16-28,6.55-8.34,14.64-15.45,21.3-23.7,7.31-9.05,15.49-18,20.18-28.41,7.08-15.69,6.27-32-6.31-45.57C947.09,332.58,936.88,328,926,328ZM792.89,407.44a11.31,11.31,0,0,0,2.59-.35c5.2-1.28,10.65-2.89,15.09-5.76q37.68-24.36,74.86-49.48a43.12,43.12,0,0,1,24.29-7.52c17.62,0,34.14,10.93,38.34,29.28,3.65,16-.58,30.7-11.07,43.23-6.54,7.81-13.87,15-20.82,22.43-2.21,2.38-4.48,4.73-6.53,7.25-11.35,14-10.68,21.12.58,34.89a137.64,137.64,0,0,1,18.25,28.19c6.84,14.57,3.17,29.12-10.13,37.28-19.53,12-25.09,30-25.72,50.9-.57,18.67-.21,37.37-1.15,56-3.17,62.83-28.38,115.83-73.69,159C767.8,860.33,709.09,886,641.61,886q-10.17,0-20.62-.78c-66.94-5-122.95-33.84-166.92-84.64-44.16-51-64.29-111-59.3-178C401,538.87,440.8,474.08,511.66,429c40.38-25.66,85.14-36.75,132.75-36.75H656.5v-.68c7,0,14,.09,21,.09,4.29,0,8.57,0,12.85-.14,19.2-.49,35-8.95,49-21.48,5.34-4.76,10.49-10.08,16.66-13.43,5.48-3,12.17-5.32,18.31-5.32H775c16.52.46,25.75,16.16,20.34,33.19-1.7,5.34-4.38,10.37-6.07,15.72-1.44,4.54-.07,7.19,3.6,7.19Z" transform="translate(-265.98 -191.39)"/><path class="cls-1" d="M638.77,870.36c-54.93,0-104.65-18.65-147.77-55.44-43.43-37-69.76-84.07-78.26-139.74-10.15-66.43,5.78-126.76,47.34-179.31,37.41-47.3,87.11-75.94,147.7-85.13,10.89-1.65,22-2.2,32.69-2.72,4.93-.24,9.58-.47,14.22-.8,4.13,0,8.23.07,12.19.14s7.63.13,11.37.13c5.41,0,9.86-.14,14-.44,15.39-1.1,29.66-8.17,44.91-22.27a91.45,91.45,0,0,1,14.76-11.48,26.76,26.76,0,0,1,13.74-4,20.47,20.47,0,0,1,14.11,5.31c7.07,6.62,8.49,17,3.82,27.78-.38.87-.77,1.73-1.16,2.59a63.77,63.77,0,0,0-2.86,7.05c-1.18,3.75-1.1,6.68.23,8.48a5.06,5.06,0,0,0,4.32,1.9,13.83,13.83,0,0,0,4.42-.86A124.14,124.14,0,0,0,815,409c18.39-11.81,36.43-24.41,54.84-37.37,8.46-6,16.81-9,24.83-9a34.69,34.69,0,0,1,19.4,6.23c15.66,10.44,20.64,29.58,12.12,46.55-3.83,7.61-9.55,14.47-15.08,21.11-1.48,1.77-3,3.53-4.4,5.31a106.94,106.94,0,0,1-7.45,8,107.39,107.39,0,0,0-7.59,8.19c-9.57,11.9-9.37,19.8.83,32.53,6.2,7.72,12.12,15.35,16.57,23.86,8.23,15.71,4.75,28.91-10,38.17-18.47,11.56-21.72,29.36-22.48,46.87-.38,8.66-.49,17.48-.6,26-.12,9.63-.25,19.58-.76,29.34-2.78,53.41-23.79,100.65-62.45,140.4C767.25,842,712.64,867.18,650.37,870.09,646.5,870.27,642.6,870.36,638.77,870.36Zm17.35-450.64c-3.86.21-7.86.37-11.72.53-8.6.35-17.48.71-26.24,1.64-61,6.47-110.89,33.72-148.17,81C423.53,561.8,410.58,629.11,431.51,703,457,793,543.86,858.29,638,858.29c1.6,0,3.2,0,4.81-.06,58.28-1.41,109.8-22.75,153.13-63.43,42.64-40,65.25-89.4,67.2-146.71.23-6.64.36-13.39.49-19.92.22-11.19.45-22.75,1.15-34.09,1-15.61,7.37-26.8,19.57-34.19,13.77-8.36,17.61-21.06,11.1-36.73a63,63,0,0,0-6.6-12c-2.41-3.44-5.09-6.76-7.68-10-1.57-1.94-3.18-3.94-4.73-5.95-6.16-8-6.36-13.6-.74-21.3a106.64,106.64,0,0,1,8.68-10c2.42-2.57,4.91-5.23,7.15-8,1.41-1.76,2.85-3.51,4.3-5.26,5.27-6.38,10.73-13,14.51-20.31,7.66-14.85,4-34.19-8.26-44-7-5.62-14.74-8.48-22.94-8.48S863,380.54,855.27,386c-15.56,11-33.7,23.65-52.15,35.49-7.11,4.56-14.92,7.91-24.47,11.55a8.9,8.9,0,0,1-3.11.68,2.93,2.93,0,0,1-2.5-1.08c-.84-1.15-.85-3.19,0-5.74a59.6,59.6,0,0,1,2.51-6.15c.43-.93.85-1.86,1.25-2.79,4.69-11,3-22.07-4.51-28.81a21.63,21.63,0,0,0-14.57-5.36,27.31,27.31,0,0,0-14.56,4.38c-5.12,3.23-9.74,7.41-14.2,11.45l-1,.9c-14,12.64-28.39,18.91-44,19.16-3.08.05-6.37.07-10.35.07l-8.54,0-8.89,0h0Z" transform="translate(-265.98 -191.39)"/><path d="M894.64,363.18a34.16,34.16,0,0,1,19.12,6.15c15.44,10.29,20.36,29.17,12,45.91-3.8,7.56-9.5,14.39-15,21-1.45,1.74-3,3.54-4.39,5.32-2.27,2.8-4.89,5.44-7.42,8a106.6,106.6,0,0,0-7.63,8.23c-9.64,12-9.43,20.35.83,33.15,5.93,7.39,12.09,15.32,16.52,23.78,4,7.72,5.26,14.83,3.62,21.12s-6.19,11.83-13.49,16.4c-18.67,11.68-22,29.62-22.72,47.27-.38,8.67-.49,17.49-.6,26-.12,9.62-.25,19.57-.76,29.32-2.77,53.28-23.74,100.41-62.31,140.07-45.36,46.65-99.86,71.77-162,74.67-3.87.18-7.76.27-11.58.27-54.81,0-104.42-18.61-147.45-55.32-43.33-37-69.61-83.88-78.09-139.43-10.12-66.3,5.77-126.5,47.24-178.93,37.34-47.2,86.92-75.78,147.38-84.95,10.87-1.65,21.94-2.19,32.65-2.71,4.91-.24,9.55-.47,14.19-.8,4.15,0,8.23.07,12.18.14s7.64.13,11.38.13c5.43,0,9.89-.14,14-.44,15.51-1.1,29.87-8.22,45.21-22.4a90.05,90.05,0,0,1,14.68-11.42,26.19,26.19,0,0,1,13.48-3.91A20,20,0,0,1,779.43,375c6.9,6.47,8.29,16.65,3.7,27.22-.37.86-.76,1.72-1.15,2.58-.91,2-1.85,4.07-2.59,6.2,1.58-8.67-.8-16.79-6.81-22.2a22.11,22.11,0,0,0-14.9-5.49,27.85,27.85,0,0,0-14.82,4.45c-5.16,3.26-9.8,7.46-14.28,11.52l-1,.88c-13.91,12.57-28.2,18.79-43.68,19-3.07.05-6.36.07-10.34.07l-8.54,0-8.89,0h-.06c-3.86.21-7.86.37-11.72.53-8.6.35-17.49.71-26.26,1.64-61.18,6.49-111.15,33.8-148.51,81.18C423,561.62,410.05,629.08,431,703.09c25.57,90.22,112.61,155.7,207,155.7,1.62,0,3.2,0,4.82-.06,58.41-1.41,110-22.8,153.46-63.57,42.74-40.13,65.41-89.61,67.36-147,.23-6.65.36-13.4.49-19.94.22-11.17.44-22.73,1.15-34.06,1-15.43,7.28-26.49,19.33-33.8,14-8.5,17.92-21.41,11.3-37.35a63.14,63.14,0,0,0-6.65-12.11c-2.42-3.45-5.1-6.77-7.7-10-1.56-1.94-3.18-3.94-4.72-5.94-6-7.82-6.19-13.23-.74-20.71a108.08,108.08,0,0,1,8.65-10c2.42-2.58,4.92-5.24,7.17-8.05,1.4-1.76,2.87-3.53,4.29-5.25,5.3-6.4,10.77-13,14.57-20.4,7.76-15,4.08-34.67-8.39-44.66-7.11-5.7-14.93-8.59-23.25-8.59s-16.31,2.8-24.16,8.33c-15.55,11-33.69,23.65-52.13,35.48-7.07,4.53-14.86,7.88-24.38,11.5a8.36,8.36,0,0,1-2.93.65,2.41,2.41,0,0,1-2.09-.88c-.73-1-.72-2.93,0-5.29A57.21,57.21,0,0,1,776,421c.41-.92.84-1.86,1.25-2.81s.81-2,1.14-3.06a7.82,7.82,0,0,0,1,5.73,5.51,5.51,0,0,0,4.72,2.1,14.34,14.34,0,0,0,4.6-.89,125.07,125.07,0,0,0,26.53-12.58c18.4-11.82,36.44-24.43,54.86-37.39,8.37-5.9,16.63-8.89,24.54-8.89m0-1c-8.18,0-16.59,3.07-25.12,9.07C851.44,384,833.3,396.67,814.7,408.61a124.24,124.24,0,0,1-26.32,12.49,13.41,13.41,0,0,1-4.27.83c-4.45,0-6-3.67-4.06-9.73a98.57,98.57,0,0,1,4-9.59c4.75-10.94,3.28-21.59-3.94-28.35a21,21,0,0,0-14.45-5.44,27.25,27.25,0,0,0-14,4.05,93.19,93.19,0,0,0-14.84,11.54c-12.74,11.79-26.92,20.88-44.6,22.15-4.62.33-9.26.43-14,.43-7.61,0-15.4-.27-23.6-.27-14.94,1.06-31.12,1.12-46.95,3.52-60.31,9.15-110.14,37.45-148,85.32-41.77,52.81-57.61,113.19-47.45,179.7,8.59,56.22,35.15,103.11,78.43,140,42.95,36.63,92.62,55.56,148.1,55.56q5.78,0,11.62-.27c64-3,118.18-29.22,162.67-75,38-39.09,59.74-85.88,62.59-140.72,1-18.42.56-36.91,1.36-55.35s4.65-35.45,22.25-46.46c15.16-9.49,18.57-22.9,10.23-38.83-4.48-8.55-10.55-16.37-16.63-23.94-9.75-12.17-10.43-20-.83-31.9,4.61-5.73,10.42-10.5,15-16.22,6.91-8.55,14.67-16.84,19.53-26.51,8.9-17.72,3.13-36.92-12.28-47.19a35,35,0,0,0-19.68-6.32Zm-119.1,72.05a9.44,9.44,0,0,0,3.29-.71c8.45-3.22,17-6.75,24.56-11.6,17.7-11.35,35-23.38,52.17-35.5,7.67-5.4,15.71-8.15,23.58-8.15s15.63,2.76,22.63,8.37c11.69,9.37,16,28.15,8.12,43.42-4.77,9.26-12.15,17.24-18.75,25.49-5,6.25-11.14,11.63-15.85,18.07-5.9,8.09-5.31,14,.76,21.91,4.09,5.33,8.54,10.4,12.39,15.89A62.63,62.63,0,0,1,895,523.35c6.27,15.08,3,27.71-10.9,36.11-13.36,8.1-18.92,20.13-19.81,34.59-1.12,18-1,36-1.64,54-2,58.11-24.9,106.79-67,146.37-42.87,40.24-93.77,61.86-152.8,63.29-1.61,0-3.2.06-4.8.06-93,0-180.58-65.27-206-155-20.61-72.74-8.56-140.09,38.39-199.63,37.5-47.55,87.4-74.4,147.84-80.81,12.72-1.35,25.57-1.49,37.93-2.16,5.94,0,11.72,0,17.43,0,3.47,0,6.92,0,10.36-.07,17.42-.28,31.68-7.87,44.33-19.29,4.82-4.36,9.67-8.85,15.12-12.3a26.86,26.86,0,0,1,14.29-4.3,21.1,21.1,0,0,1,14.23,5.23c7.38,6.65,9,17.33,4.39,28.24-1.28,3-2.79,5.9-3.77,9-1.48,4.62-.29,7.47,3,7.47Z" transform="translate(-265.98 -191.39)"/><path class="cls-1" d="M638.88,842a191.39,191.39,0,0,1-106.57-31.89C476,773.18,444.64,721,439.19,655A201.7,201.7,0,0,1,614.4,438.74c9-1.16,18.25-1.68,25.69-2.1,3.07-.18,6-.34,8.49-.53,4.73,0,9,0,13,.08,3.48,0,6.73.06,9.85.06,4.63,0,8.4-.07,11.87-.22,18.91-.82,33.12-11.58,43.39-20.86a69.58,69.58,0,0,1,15.78-10.92,18.09,18.09,0,0,1,8-2,17.72,17.72,0,0,1,12,5c5.37,4.92,7,11.43,4.9,19.9a21.32,21.32,0,0,1-1.59,4,21,21,0,0,0-1.71,4.42,53.86,53.86,0,0,0-1,7.78c-.08,1.11-.17,2.23-.28,3.34l-.06.56h.81c1.06,0,2.2.1,3.3.19s2.29.19,3.4.19a9.31,9.31,0,0,0,4.22-.8,349,349,0,0,0,33.67-18.35c10.78-6.82,21.21-14.57,31.3-22.07l2.71-2c6.82-5.07,13.9-7.64,21-7.64a31.27,31.27,0,0,1,18.69,6.49c12,8.77,15.81,23.38,9.82,37.21-3.15,7.28-8.37,13.86-13.42,20.22l-2.43,3.07a107.09,107.09,0,0,1-8.06,8.82c-2.5,2.53-5.08,5.15-7.36,7.94-7.94,9.68-8,16.46,0,26.89,1,1.36,2.09,2.73,3.15,4.09,4.07,5.23,8.27,10.65,11.44,16.47,8.58,15.76,5.64,27-9.56,36.45-14.6,9.09-17.24,23.36-17.91,37.44-.41,8.44-.54,17-.66,25.33-.11,6.86-.22,14-.48,20.92-2.18,58.13-27.38,107.27-74.9,146-34.37,28.06-73.68,43.91-116.83,47.13C649.41,841.78,644.08,842,638.88,842Zm14.39-393.71c-3.64.23-7.34.41-10.92.59-7.73.38-15.72.77-23.53,1.63-50.61,5.57-95.92,30.85-127.6,71.17a188.21,188.21,0,0,0-39.05,141.59c12.35,94.84,93,166.37,187.69,166.37l2.6,0c54-.72,101.26-21.69,140.54-62.31,28.71-29.68,45.23-63.6,49.1-100.8,1.27-12.28,1.58-24.85,1.87-37,.18-7.49.37-15.23.78-22.82.73-13.3,2.57-26.95,16.18-35,14.08-8.37,17.74-20.27,10.58-34.41-3.11-6.16-7.4-11.84-11.54-17.33-1.41-1.86-2.86-3.79-4.25-5.7-5.5-7.61-5.55-12.7-.17-19.45,2.38-3,5.11-5.8,7.76-8.52s5.23-5.38,7.58-8.29l2.15-2.65c4.62-5.65,9.39-11.5,12.42-18,6.77-14.64,3.2-29.64-9.31-39.14a29,29,0,0,0-17.84-6.21c-7.29,0-15,2.8-22.37,8.1-15.63,11.3-31.85,21.89-48.47,32.65-4.74,3.07-10.37,5-15.33,6.76a6.15,6.15,0,0,1-2,.29,7.5,7.5,0,0,1-4.1-1.12c-.4-.28-.36-2.38.39-5.3a25.65,25.65,0,0,1,1.75-4.43c.33-.69.65-1.39.95-2.09,3.93-9.34,2.48-19-3.69-24.72a19,19,0,0,0-12.92-4.93,23.7,23.7,0,0,0-12.5,3.76,104.68,104.68,0,0,0-13.63,10.83l-.64.57c-10.29,9.15-19.15,13.78-28.73,15a224.08,224.08,0,0,1-23.4,1.39c-3.23.08-6.56.16-9.84.3l0-.72Z" transform="translate(-265.98 -191.39)"/><path d="M863.24,397.37a30.68,30.68,0,0,1,18.39,6.4c11.76,8.62,15.55,23,9.66,36.6-3.13,7.22-8.33,13.77-13.35,20.11-.82,1-1.63,2-2.44,3.08a105.64,105.64,0,0,1-8,8.77c-2.5,2.54-5.09,5.16-7.39,8-8.13,9.91-8.14,16.85,0,27.51,1,1.37,2.1,2.73,3.16,4.1,4,5.22,8.24,10.62,11.39,16.4,8.43,15.47,5.54,26.51-9.38,35.79s-17.47,23.62-18.15,37.83c-.41,8.45-.54,17-.66,25.35-.11,6.86-.21,14-.48,20.91-1.1,29.46-8.14,56.81-20.92,81.28-12.37,23.7-30.47,45.37-53.8,64.41-34.29,28-73.5,43.8-116.54,47-5.29.39-10.6.59-15.79.59a190.89,190.89,0,0,1-106.3-31.81c-56.2-36.82-87.46-88.87-92.9-154.71A201.2,201.2,0,0,1,614.47,439.24c9-1.16,18.22-1.68,25.65-2.11,3.06-.17,6-.33,8.46-.52,4.75,0,9,0,13,.08,3.46,0,6.73.06,9.85.06,4.64,0,8.42-.07,11.89-.22,19.07-.83,33.38-11.65,43.71-21a68.86,68.86,0,0,1,15.66-10.84,17.52,17.52,0,0,1,7.77-1.91,17.28,17.28,0,0,1,11.68,4.91c5.22,4.78,6.77,11.13,4.75,19.42a21.33,21.33,0,0,1-1.57,3.93,22.11,22.11,0,0,0-1.74,4.53,53.78,53.78,0,0,0-1,7.85c-.08,1.09-.16,2.23-.28,3.33l-.11,1.12,1.12,0h.24c1,0,2.17.1,3.26.19s2.31.19,3.43.19a9.89,9.89,0,0,0,4.45-.85A352.13,352.13,0,0,0,808.48,429c10.79-6.83,21.23-14.59,31.33-22.1l2.71-2c6.73-5,13.71-7.54,20.72-7.54m-103.07,61.8a7.23,7.23,0,0,1-3.76-1c-.18-.42-.15-2.17.53-4.8a25.58,25.58,0,0,1,1.72-4.34c.33-.69.66-1.4,1-2.12,4-9.53,2.51-19.45-3.82-25.28a19.43,19.43,0,0,0-13.25-5.06,24.17,24.17,0,0,0-12.76,3.84,103.56,103.56,0,0,0-13.69,10.87l-.65.58c-10.21,9.07-19,13.67-28.46,14.91a225.86,225.86,0,0,1-23.35,1.38c-3.07.07-6.23.15-9.35.28l0-.73-1,.06c-3.63.23-7.33.41-10.91.59-7.73.38-15.73.77-23.56,1.63a190.2,190.2,0,0,0-167.1,213.32c12.39,95.1,93.29,166.81,188.19,166.81l2.6,0c54.11-.72,101.52-21.74,140.9-62.46,28.79-29.77,45.35-63.78,49.23-101.1,1.28-12.3,1.59-24.88,1.88-37,.18-7.49.37-15.22.78-22.81.72-13.16,2.54-26.67,15.94-34.63C865.53,563.53,869.26,551.4,862,537c-3.13-6.2-7.43-11.89-11.59-17.39-1.41-1.87-2.86-3.79-4.24-5.7-5.41-7.48-5.46-12.23-.19-18.85,2.37-3,5.09-5.77,7.72-8.48s5.25-5.39,7.62-8.33l2.15-2.64c4.63-5.68,9.43-11.55,12.49-18.16,6.87-14.86,3.24-30.09-9.47-39.75a29.44,29.44,0,0,0-18.14-6.31c-7.4,0-15.23,2.83-22.66,8.2C810,430.85,793.82,441.44,777.2,452.2c-4.69,3-10.29,5-15.22,6.71a5.76,5.76,0,0,1-1.81.26m103.07-62.8c-7.15,0-14.41,2.61-21.32,7.74-11.14,8.27-22.27,16.65-34,24.06a348.94,348.94,0,0,1-33.62,18.32,9,9,0,0,1-4,.75c-2.17,0-4.52-.38-6.69-.38h-.25c.37-3.69.42-7.47,1.22-11.07.66-2.91,2.6-5.53,3.31-8.44,1.86-7.59,1.07-14.79-5-20.39a18.17,18.17,0,0,0-12.35-5.17,18.62,18.62,0,0,0-8.21,2,70.16,70.16,0,0,0-15.89,11c-12.4,11.2-25.86,20-43.08,20.73-3.87.17-7.75.22-11.85.22-6.71,0-14-.14-22.92-.14-8.68.65-21.53,1-34.21,2.64C507.46,452.06,429.81,547.58,438.69,655c5.52,66.89,37.39,118.81,93.34,155.47a191.7,191.7,0,0,0,106.85,32q7.86,0,15.86-.59c43.87-3.27,83-19.43,117.1-47.24,46.3-37.79,72.82-86,75.09-146.43.58-15.4.4-30.84,1.14-46.24.7-14.66,3.67-28.32,17.68-37,15.33-9.54,18.42-21.16,9.73-37.12-4-7.35-9.53-13.91-14.63-20.63-7.62-10-7.94-16.57,0-26.26,4.81-5.87,10.76-10.81,15.43-16.77,5.82-7.43,12.23-14.89,15.92-23.4,6.34-14.64,1.66-29.26-10-37.81a31.8,31.8,0,0,0-19-6.59Zm-103.07,63.8a6.48,6.48,0,0,0,2.13-.32c5.31-1.85,10.77-3.78,15.44-6.81,16.36-10.59,32.7-21.26,48.5-32.66,7.26-5.25,14.8-8,22.07-8a28.6,28.6,0,0,1,17.54,6.1c11.88,9,16,23.76,9.16,38.54-3.47,7.51-9.24,14.06-14.51,20.59-4.76,5.9-10.63,10.9-15.34,16.82-5.77,7.24-5.29,12.52.16,20.06s11.6,14.74,15.75,22.95c7.14,14.12,3.24,25.66-10.39,33.76S835,592.78,834.26,606.63c-1.09,19.93-.6,40-2.66,59.81-4.08,39.23-21.78,72.4-49,100.5-38.27,39.58-85,61.42-140.19,62.16l-2.59,0c-95.35,0-174.8-70.77-187.2-165.94C439.05,558.64,514.28,462.5,618.88,451c11.41-1.26,22.94-1.5,34.42-2.22l0,.71c11.27-.5,22.64-.26,33.79-1.71s20.56-7.66,29-15.16c4.52-4,9.09-8.15,14.2-11.34a23.09,23.09,0,0,1,12.23-3.69,18.39,18.39,0,0,1,12.58,4.79c6,5.56,7.43,15,3.57,24.16a50.74,50.74,0,0,0-2.73,6.6c-.49,1.93-1.08,5.2-.19,5.83a8.1,8.1,0,0,0,4.39,1.21Z" transform="translate(-265.98 -191.39)"/><path class="cls-1" d="M640.87,813.36c-2.78,0-5.62-.06-8.43-.19-78.55-3.59-145.09-60.23-161.82-137.74a170.48,170.48,0,0,1-.24-71.33,175.48,175.48,0,0,1,77-111.44,170.87,170.87,0,0,1,67-25.09c9.34-1.41,19-2,28.29-2.54,4.16-.25,8.45-.51,12.67-.83l.06.7h.46c1.17,0,2.34,0,3.51,0s2.33,0,3.49,0c1.56,0,2.84,0,4.05.12,1.52.1,3,.15,4.52.15,16.25,0,30.35-5.93,43.08-18.12a56.31,56.31,0,0,1,11.29-8.51A19,19,0,0,1,735,436a14.93,14.93,0,0,1,10.21,3.78c5,4.66,6.36,12.47,3.38,19.9-.32.8-.66,1.6-1,2.4a49.28,49.28,0,0,0-2.1,5.51c-.81,2.79-.69,5,.34,6.36a4.2,4.2,0,0,0,3.54,1.53,10.57,10.57,0,0,0,2.9-.47c5.5-1.59,12.6-3.92,18.63-7.78,16-10.21,30-19.82,42.9-29.4,6-4.48,12.16-6.76,18.18-6.76a27.71,27.71,0,0,1,15.54,5.14,25.46,25.46,0,0,1,9.33,31.13c-2.94,6.82-7.74,13-12.38,19l-2.2,2.85a88.18,88.18,0,0,1-6.88,7.69,89.54,89.54,0,0,0-7,7.8c-5.47,7.17-5.35,12.59.46,20.7q1.36,1.9,2.76,3.81c4.6,6.33,9.37,12.88,12.62,19.94,4.68,10.16,1.44,19.45-8.67,24.88-10.46,5.61-15.94,14.78-16.74,28-.51,8.44-.67,17-.83,25.35-.13,6.64-.26,13.5-.56,20.24C815,701.15,790.63,745.19,745,778.51,713.35,801.64,678.31,813.36,640.87,813.36ZM655.43,477l-2.61,0c-1.16,0-2.44.05-3.93.05l-2.88.22c-2.63.2-5.89.46-9.13.55-48.23,1.42-88.68,20.9-120.24,57.92C488,569.28,474.82,614.23,480.35,659c5.58,45.11,29.58,85.81,65.86,111.65a162.35,162.35,0,0,0,94.67,30.44,164.55,164.55,0,0,0,104.27-37.7C783.36,732,803.43,692.81,804.79,647c.16-5.06.26-10.2.36-15.18.16-7.4.31-15.06.62-22.59.43-10.41,2.64-22,15.8-28.52,8.24-4.12,11.86-12.33,9-20.42a85.7,85.7,0,0,0-12.46-23.22c-8.06-10.56-9-13.81-.35-24.24,1.17-1.41,2.49-2.76,3.75-4.06,1-1,2-2,2.91-3.06,1.22-1.39,2.52-2.77,3.77-4.1a86.21,86.21,0,0,0,9-10.72c6.86-10.29,7.7-21.15,2.43-31.4-4.13-8.05-13.71-13.68-23.3-13.68-7.12,0-14,3-19.81,8.58-13.87,13.31-30.75,22.06-46.85,29.89a25.78,25.78,0,0,1-6.06,1.92,11.67,11.67,0,0,1-2.23.26,2.72,2.72,0,0,1-2.34-.85c-.56-.78-.51-2.19.16-4.2.43-1.26.94-2.53,1.44-3.75a46.62,46.62,0,0,0,1.94-5.39c1.6-6,.72-11.77-2.43-15.88a14.47,14.47,0,0,0-11.83-5.55,19.31,19.31,0,0,0-2.7.2,29.64,29.64,0,0,0-16.12,8c-12.13,12.37-26.47,18.39-43.86,18.39-2.33,0-4.76-.12-7.2-.34C657.54,477,656.62,477,655.43,477Z" transform="translate(-265.98 -191.39)"/><path d="M832,431.53a27.16,27.16,0,0,1,15.26,5.06,25,25,0,0,1,9.15,30.51c-2.92,6.76-7.69,12.93-12.31,18.89-.74,1-1.48,1.91-2.2,2.86a90.18,90.18,0,0,1-6.85,7.64,89.35,89.35,0,0,0-7,7.85c-5.56,7.29-5.44,13.06.46,21.3q1.37,1.9,2.76,3.81c4.59,6.31,9.33,12.83,12.57,19.85,4.55,9.89,1.39,18.94-8.46,24.23-10.62,5.7-16.18,15-17,28.45-.51,8.45-.67,17-.83,25.37-.13,6.63-.26,13.49-.56,20.22-1.24,27.14-8.12,52-20.47,73.93-12,21.21-29.36,40.26-51.74,56.61-31.57,23.06-66.52,34.75-103.85,34.75-2.78,0-5.6-.06-8.41-.19-78.32-3.58-144.67-60.06-161.35-137.34a169.87,169.87,0,0,1-.24-71.13,174.94,174.94,0,0,1,76.76-111.12,170.59,170.59,0,0,1,66.78-25c9.31-1.4,18.94-2,28.24-2.53,4-.24,8.12-.49,12.18-.8l0,.67h.93c1.17,0,2.35,0,3.52,0s2.32,0,3.48,0c1.55,0,2.82,0,4,.12,1.52.1,3,.15,4.55.15,16.39,0,30.6-6,43.43-18.26A55.24,55.24,0,0,1,726,438.89a18.55,18.55,0,0,1,9-2.43,14.44,14.44,0,0,1,9.87,3.65c4.88,4.51,6.16,12.11,3.26,19.34-.32.81-.67,1.6-1,2.4a48.71,48.71,0,0,0-2.12,5.56c-.86,2.95-.71,5.3.42,6.8a4.61,4.61,0,0,0,3.94,1.73,10.82,10.82,0,0,0,3-.49c5.53-1.6,12.67-3.94,18.76-7.84,16-10.22,30-19.84,42.92-29.42,6-4.41,12-6.66,17.89-6.66M741.36,486a2.26,2.26,0,0,1-1.93-.64c-.45-.62-.37-2,.23-3.75.42-1.25.93-2.51,1.42-3.73a46.82,46.82,0,0,0,2-5.44c1.65-6.14.73-12.08-2.51-16.31a15,15,0,0,0-12.23-5.75,20.3,20.3,0,0,0-2.77.2,30.18,30.18,0,0,0-16.41,8.12c-12,12.27-26.25,18.24-43.5,18.24-2.32,0-4.73-.11-7.16-.33-.89-.08-1.83-.12-3-.12l-2.62,0c-1.14,0-2.44.05-3.92.05h-.06l-2.86.22c-2.62.2-5.88.46-9.11.55-48.37,1.42-88.94,21-120.6,58.1-28.69,33.65-42,78.73-36.4,123.69,5.59,45.24,29.67,86.06,66.06,112a162.89,162.89,0,0,0,95,30.55,165.1,165.1,0,0,0,104.59-37.82C783.8,732.27,803.93,693,805.29,647c.16-5.06.26-10.21.36-15.18.16-7.41.31-15.07.62-22.59.42-10.27,2.6-21.64,15.52-28.1,8.48-4.23,12.19-12.69,9.25-21a86.24,86.24,0,0,0-12.53-23.35c-8-10.46-8.81-13.4-.36-23.62,1.15-1.4,2.46-2.74,3.72-4,1-1,2-2,2.92-3.08,1.22-1.38,2.51-2.75,3.76-4.09a85.81,85.81,0,0,0,9.05-10.78c7-10.45,7.81-21.49,2.46-31.91-4.22-8.21-14-13.95-23.75-13.95-7.25,0-14.22,3-20.16,8.72-13.81,13.26-30.65,22-46.71,29.8a25.16,25.16,0,0,1-6,1.88,10.66,10.66,0,0,1-2.13.25M832,430.53c-6.24,0-12.44,2.38-18.48,6.86-13.91,10.31-28.28,20-42.86,29.38-5.56,3.55-12.11,5.87-18.51,7.72a10.11,10.11,0,0,1-2.76.45c-3.48,0-4.71-2.73-3.4-7.25.78-2.7,2-5.25,3.1-7.87,3.07-7.66,1.7-15.62-3.51-20.44A15.4,15.4,0,0,0,735,435.46a19.5,19.5,0,0,0-9.5,2.56,56.84,56.84,0,0,0-11.38,8.58c-12.17,11.65-26.22,18-42.74,18-1.48,0-3-.05-4.49-.15-1.35-.09-2.71-.12-4.08-.12-2.33,0-4.67.09-7,.09l-.06-.74c-13.83,1.09-27.8,1.35-41.49,3.42C515.47,482,449.11,578.15,470.13,675.54c16.75,77.61,83.36,134.52,162.29,138.13q4.25.2,8.45.19c38.31,0,73.17-12.11,104.44-35,44.44-32.46,70.09-75.58,72.62-131.29.69-15.18.48-30.41,1.39-45.58.71-11.76,5.09-21.53,16.48-27.63,10.18-5.47,13.7-15.08,8.88-25.53-3.92-8.51-9.91-16.13-15.42-23.83-5.35-7.47-6.06-12.78-.47-20.1,4.19-5.5,9.67-10,13.87-15.5,5.35-7,11.21-14,14.64-21.95a26,26,0,0,0-9.51-31.74A28.07,28.07,0,0,0,832,430.53ZM741.36,487a11.91,11.91,0,0,0,2.33-.27,26,26,0,0,0,6.18-2c16.82-8.17,33.33-16.88,47-30,6.27-6,13.1-8.44,19.46-8.44,10.14,0,19.11,6.11,22.86,13.41,5.43,10.57,4,21.25-2.41,30.9-3.57,5.36-8.4,9.9-12.72,14.75-2.16,2.44-4.59,4.64-6.66,7.14-8.68,10.49-8,14,.34,24.87a85.46,85.46,0,0,1,12.38,23.07c2.94,8.34-1.33,16.1-8.76,19.81-12.45,6.22-15.57,16.72-16.07,29-.51,12.59-.6,25.19-1,37.78-1.43,48.09-22.95,86-59.45,116a162.24,162.24,0,0,1-198.34,7.23C470.89,716.42,457,606.46,517,536.06c31.43-36.85,71.32-56.31,119.87-57.74,4.56-.13,9.1-.58,12-.77,2.7,0,4.75-.08,6.54-.08,1,0,2,0,2.94.11,2.46.22,4.88.34,7.25.34,16.89,0,31.62-5.69,44.22-18.54a29.24,29.24,0,0,1,15.83-7.83,20.1,20.1,0,0,1,2.63-.19c10.6,0,16.81,9.47,13.77,20.8-.83,3.11-2.33,6-3.36,9.12-1.28,3.81-.42,5.7,2.65,5.7Z" transform="translate(-265.98 -191.39)"/><path class="cls-1" d="M641.25,784.79a147.85,147.85,0,0,1-89.81-30.68,142.29,142.29,0,0,1-52.59-83.22,145.34,145.34,0,0,1,127.7-176.15c5.73-.58,11.6-.86,17.28-1.14,2.51-.13,5-.25,7.54-.4l0,.36h.47l3.7,0c1.23,0,2.46,0,3.68,0,1.67,0,3,0,4.33.1.94.05,1.89.07,2.82.07,13.17,0,24.77-4.73,35.46-14.47a45.51,45.51,0,0,1,13.77-9.05,12.53,12.53,0,0,1,4.57-.88,11.8,11.8,0,0,1,9.12,4.37,13.24,13.24,0,0,1,2.63,11,25.76,25.76,0,0,1-1.43,4.38,28,28,0,0,0-1.41,4.2c-.65,2.86-1.09,5.68.08,7,.75.84,2.2,1.24,4.42,1.24.75,0,1.55,0,2.54-.13a19.84,19.84,0,0,0,6.3-2.06c14.41-6.73,29.48-14.66,42.12-27,5-4.86,10.6-7.43,16.26-7.43A21.8,21.8,0,0,1,814,469.56c9.1,6.79,11.63,18.49,6.28,29.12-2.34,4.67-5.84,8.86-8.92,12.56-1.74,2.09-3.73,4-5.66,6-1.58,1.55-3.21,3.16-4.72,4.85-8.5,9.54-8.6,14.7-.49,25.1a81.08,81.08,0,0,1,10.76,17.45c3.44,7.94.65,16.15-6.62,19.51-13,6-15.13,17.34-15.52,27.63-.2,5.27-.27,10.63-.34,15.81-.1,7.84-.21,16-.77,23.88-1.64,23.07-8.35,44.09-20,62.49-10.95,17.36-26.6,32.93-46.52,46.29A143.74,143.74,0,0,1,641.25,784.79Zm5.45-279.13c-46.47,0-83.91,17.53-111.26,52.11-39.27,49.67-36.28,124.9,6.82,171.29,26.29,28.31,61,43.89,97.79,43.89A130.36,130.36,0,0,0,696,760.26c52.2-24.58,79.17-65,80.14-120V640c.18-10.15.37-20.65,1-31,.48-7.87,3.8-13.22,10.16-16.37,10.12-5,13.19-13.26,8.66-23.24-2.32-5.11-5.81-9.77-9.18-14.28l-1.5-2c-5.11-6.9-5-10.48.36-16.66.91-1,1.93-2,2.91-3a43.06,43.06,0,0,0,3.43-3.58c1.08-1.32,2.19-2.61,3.31-3.91,3.26-3.78,6.64-7.68,9-12.07,4.8-8.92,4.29-17.82-1.43-25.07a22.62,22.62,0,0,0-17.71-9,21.5,21.5,0,0,0-15.58,6.85c-11.81,12.34-26.39,19.57-37.77,24.49a19.46,19.46,0,0,1-6.56,1.09c-.85,0-1.73.09-2.59.17.12-.71.22-1.43.33-2.15a49.19,49.19,0,0,1,1.16-6c1.49-5.3,2.47-12.07-3.27-17.38a12.6,12.6,0,0,0-8.64-3.08,18.72,18.72,0,0,0-9.63,2.81,34.75,34.75,0,0,0-6.77,5.26c-9.11,9.39-19.84,13.95-32.81,13.95-1.48,0-3-.06-4.54-.19-1.16-.09-2.4-.13-3.89-.13-1.1,0-2.2,0-3.3.05s-2.19,0-3.28,0Z" transform="translate(-265.98 -191.39)"/><path d="M800.82,465.33A21.33,21.33,0,0,1,813.68,470c8.9,6.64,11.37,18.09,6.14,28.5-2.32,4.61-5.8,8.78-8.87,12.46a78.46,78.46,0,0,1-5.62,5.91c-1.58,1.56-3.23,3.18-4.74,4.87-8.62,9.68-8.73,15.21-.52,25.74a80.6,80.6,0,0,1,10.7,17.34c3.32,7.69.64,15.62-6.37,18.87-13.22,6.12-15.41,17.62-15.81,28.06-.2,5.27-.27,10.63-.34,15.81-.1,7.84-.21,15.94-.77,23.86-1.63,23-8.32,43.94-19.88,62.26-10.91,17.3-26.51,32.83-46.37,46.14a143.2,143.2,0,0,1-80,24.51,147.29,147.29,0,0,1-89.5-30.58,141.79,141.79,0,0,1-52.41-82.93A144.73,144.73,0,0,1,626.6,495.23c5.72-.57,11.58-.85,17.25-1.13,2.31-.12,4.69-.23,7-.37l0,.33h.94c1.24,0,2.47,0,3.71,0s2.45,0,3.68,0c1.65,0,3,0,4.29.1,1,.05,1.91.07,2.85.07,13.3,0,25-4.78,35.8-14.6a45,45,0,0,1,13.61-9,12.17,12.17,0,0,1,4.39-.84,11.27,11.27,0,0,1,8.73,4.19,12.73,12.73,0,0,1,2.53,10.61,24.8,24.8,0,0,1-1.41,4.3,28.92,28.92,0,0,0-1.43,4.27c-.63,2.78-1.19,5.88.2,7.43.85.94,2.42,1.4,4.79,1.4a25.84,25.84,0,0,0,2.59-.14,20.07,20.07,0,0,0,6.46-2.1c14.45-6.75,29.57-14.7,42.26-27.1,4.88-4.77,10.38-7.29,15.91-7.29M723.19,512c.08-.51.15-1,.23-1.52a47.84,47.84,0,0,1,1.14-6c1.53-5.44,2.53-12.39-3.41-17.89a13.11,13.11,0,0,0-9-3.21,19.17,19.17,0,0,0-9.89,2.89,35,35,0,0,0-6.87,5.33c-9,9.29-19.62,13.8-32.45,13.8-1.46,0-3-.06-4.5-.18-1.18-.1-2.42-.14-3.93-.14-1.1,0-2.23,0-3.31.05s-2.19,0-3.26,0H646.7c-46.63,0-84.2,17.6-111.65,52.3-39.42,49.85-36.42,125.38,6.84,171.94,26.39,28.41,61.25,44.05,98.16,44.05a130.76,130.76,0,0,0,56.12-12.74c52.38-24.67,79.44-65.19,80.42-120.44v-.2c.18-10.18.36-20.7,1-31,.47-7.67,3.7-12.89,9.88-15.95,10.4-5.15,13.56-13.63,8.9-23.9-2.35-5.16-5.85-9.84-9.24-14.36l-1.5-2c-4.92-6.64-4.85-10.09.34-16,.89-1,1.9-2,2.88-3a44.33,44.33,0,0,0,3.47-3.63c1.07-1.3,2.2-2.62,3.3-3.89,3.28-3.8,6.67-7.73,9-12.16,4.9-9.11,4.37-18.21-1.47-25.62a23.14,23.14,0,0,0-18.11-9.14,22,22,0,0,0-15.94,7c-11.75,12.28-26.27,19.48-37.61,24.38a18.82,18.82,0,0,1-6.39,1.05c-.65,0-1.31.07-2,.12m77.63-47.62c-5.7,0-11.41,2.5-16.61,7.58-12.18,11.89-26.79,19.81-42,26.9a19.47,19.47,0,0,1-6.13,2c-.76.07-1.63.13-2.5.13-1.66,0-3.29-.23-4-1.07-1.1-1.22-.46-4.38,0-6.54.66-2.93,2.27-5.66,2.84-8.6,1.7-8.63-4.48-16-12.24-16a13.19,13.19,0,0,0-4.75.91,46.59,46.59,0,0,0-13.93,9.15c-10.14,9.24-21.61,14.34-35.12,14.34-.92,0-1.85,0-2.8-.07-1.44-.07-2.89-.1-4.34-.1-2.46,0-4.93.07-7.39.07l0-.39c-8.45.51-16.93.73-25.34,1.57A145.84,145.84,0,0,0,498.36,671c15.42,70.29,77.69,114.29,142.89,114.29a143.81,143.81,0,0,0,80.54-24.68c38.9-26.08,63.29-61.36,66.69-109.16.93-13.19.6-26.47,1.11-39.7.44-11.56,3.18-21.62,15.23-27.19,7.6-3.52,10.37-12.08,6.87-20.17a82,82,0,0,0-10.83-17.56c-7.79-10-8-14.92.48-24.46,3.32-3.73,7.19-7,10.38-10.81s6.69-8.08,9-12.66c5.54-11,2.7-22.93-6.43-29.74a22.44,22.44,0,0,0-13.46-4.83ZM722,513.07c3.33-.41,7-.09,10-1.37,14-6.05,27.13-13.32,37.94-24.61a20.93,20.93,0,0,1,15.21-6.69,22.13,22.13,0,0,1,17.32,8.76c6.06,7.68,5.71,16.47,1.38,24.52-3.12,5.82-8,10.72-12.25,15.9-1.92,2.34-4.33,4.27-6.33,6.56-5.63,6.45-5.5,10.38-.38,17.29,3.85,5.19,8,10.38,10.63,16.2,4.51,9.93,1.35,17.74-8.43,22.58-7.12,3.53-10,9.52-10.44,16.79-.64,10.4-.82,20.83-1,31.25-1,57-29.86,96-79.85,119.56a130.29,130.29,0,0,1-55.69,12.64c-36,0-71.06-15.34-97.43-43.73-43.18-46.48-46.2-120.8-6.78-170.63,28.33-35.83,65.89-51.93,110.86-51.93H648c2.19,0,4.39-.09,6.58-.09,1.29,0,2.57,0,3.85.13,1.55.13,3.08.19,4.58.19a44.4,44.4,0,0,0,33.17-14.1,34.57,34.57,0,0,1,6.67-5.18,18.11,18.11,0,0,1,9.37-2.74,12.08,12.08,0,0,1,8.3,2.95c5.14,4.75,4.88,10.67,3.13,16.88-.81,2.88-1.09,5.91-1.61,8.87Z" transform="translate(-265.98 -191.39)"/><path class="cls-1" d="M640.1,756.28a116.4,116.4,0,0,1-85.42-37.89c-22.44-24.45-33.2-56.54-30.3-90.37,2.19-25.59,13.72-50.36,32.45-69.76s43.07-31.74,68.51-34.73c5.28-.62,10.68-.95,15.92-1.27,2.3-.14,4.6-.28,6.9-.44l0,.33h5.13l4.68,0c1.88,0,3.77,0,5.65,0,9.68-.19,18.51-4.15,27-12.11a40,40,0,0,1,7.58-5.85,12.52,12.52,0,0,1,6-1.7,9.77,9.77,0,0,1,6.71,2.71c3.3,3,4.17,6.95,2.64,12.06a43.29,43.29,0,0,0-1.28,6.74c-.14,1-.27,2-.44,3l-.1.62.62,0c.68,0,1.37,0,2.07,0h2.95a18.24,18.24,0,0,0,6.23-.81c13.83-5,23.69-11.33,31-19.92,4.42-5.19,9-7.71,14.12-7.71a17.91,17.91,0,0,1,4.9.73c7.53,2.19,11.89,6.69,13.32,13.75,1.3,6.43-.6,12.58-5.83,18.79-2.17,2.58-4.52,5.07-6.79,7.49-2,2.09-4,4.25-5.93,6.46-5.41,6.26-5.49,10.32-.32,17.36l1,1.29c3.1,4.21,6.31,8.56,8.36,13.28,3.55,8.17,1.17,14-7.27,17.8s-9.86,11.28-10.09,18.06c-.15,4.35-.18,8.78-.2,13,0,7-.09,14.31-.69,21.42-3.69,44.1-26.88,76.49-68.91,96.27a117.25,117.25,0,0,1-50.19,11.44ZM650,534l-6.32.4c-4.32.27-8.41.53-12.51.85-52.67,4.2-94.44,48.79-95.1,101.53-.36,29.21,10.36,56.35,30.18,76.42a103.49,103.49,0,0,0,74.28,30.73,112.89,112.89,0,0,0,16.14-1.18c45.23-6.54,91.51-47,90.67-103.24v-.23c-.11-7.82-.23-15.9.12-23.83.29-6.39,2.84-10.3,8-12.3,7.75-3,10.46-8.79,7.84-16.77A39.24,39.24,0,0,0,757,575c-7.53-9.85-7.47-11,1-20.09,4-4.34,8.6-9.27,11.61-14.84,4.12-7.63,2-17.42-4.83-22.28a18.37,18.37,0,0,0-10.7-3.43,19.39,19.39,0,0,0-13.24,5.33A52.15,52.15,0,0,0,736,525c-6,7.27-14.35,12-26.39,15a11.21,11.21,0,0,1-2.62.39,2.06,2.06,0,0,1-1.8-.65c-.51-.72-.37-2.24.43-4.49,1.86-5.27,3.35-11.29-2.56-16a10.29,10.29,0,0,0-6.44-2.18c-3.68,0-7.5,1.75-10.73,4.93-8.5,8.35-18.14,12.59-28.63,12.59a42.47,42.47,0,0,1-7.12-.62H650Z" transform="translate(-265.98 -191.39)"/><path d="M768.8,499.59a17.23,17.23,0,0,1,4.76.71c7.33,2.13,11.58,6.51,13,13.37,1.27,6.27-.6,12.28-5.73,18.37-2.15,2.56-4.5,5.05-6.77,7.46-2,2.1-4,4.27-5.93,6.48-5.55,6.42-5.64,10.78-.35,18l1,1.29c3.08,4.18,6.28,8.51,8.3,13.18,3.42,7.86,1.12,13.47-7,17.15-8.72,3.93-10.14,11.56-10.38,18.5-.15,4.35-.18,8.77-.2,13,0,7-.09,14.3-.69,21.38C755,692.44,732,724.69,690.09,744.39A115,115,0,0,1,555,718c-22.34-24.34-33-56.29-30.16-90,2.18-25.47,13.66-50.14,32.31-69.45S600.08,527,625.4,524c5.26-.62,10.66-.95,15.89-1.27,2.1-.13,4.27-.26,6.42-.41l0,.3h5.59l4.68,0c2.17,0,4,0,5.66,0,9.81-.2,18.74-4.2,27.32-12.24a39.16,39.16,0,0,1,7.48-5.78,12,12,0,0,1,5.8-1.64,9.32,9.32,0,0,1,6.38,2.58c3.14,2.86,4,6.64,2.49,11.55a44.9,44.9,0,0,0-1.3,6.81c-.13,1-.27,2-.43,3l-.21,1.24,1.25-.08c.59,0,1.24,0,2,0h2.95a18.87,18.87,0,0,0,6.4-.84,91.94,91.94,0,0,0,16.31-7.58,57,57,0,0,0-4.55,5c-5.89,7.19-14.19,11.9-26.12,14.84a11.32,11.32,0,0,1-2.5.37c-.72,0-1.19-.15-1.39-.44s-.48-1.29.49-4c2.06-5.84,3.16-11.88-2.72-16.54a10.72,10.72,0,0,0-6.75-2.29c-3.81,0-7.75,1.8-11.08,5.07-8.41,8.26-17.92,12.45-28.28,12.45a42.66,42.66,0,0,1-7-.61l-.12,0H650l-6.31.4c-4.33.27-8.41.53-12.52.86-52.92,4.21-94.9,49-95.56,102-.36,29.34,10.4,56.61,30.32,76.77a104,104,0,0,0,74.64,30.88,114,114,0,0,0,16.22-1.18c45.44-6.58,91.93-47.18,91.09-103.75v-.21c-.11-7.82-.23-15.9.12-23.82.28-6.16,2.73-9.93,7.69-11.85,8-3.11,10.85-9.12,8.14-17.39a39.94,39.94,0,0,0-6.37-11.56c-7.43-9.71-7.4-10.44,1-19.44,4-4.37,8.64-9.31,11.68-14.94,4.23-7.85,2.05-17.92-5-22.93a18.85,18.85,0,0,0-11-3.52,19.39,19.39,0,0,0-7.84,1.66,57.36,57.36,0,0,0,8.82-8.35c4.32-5.07,8.82-7.53,13.74-7.53m0-1c-5.95,0-10.63,3.34-14.5,7.88-8.35,9.79-19.11,15.55-30.81,19.78a17.78,17.78,0,0,1-6.06.78l-2.95,0c-.71,0-1.41,0-2.1,0,.54-3.23.77-6.56,1.7-9.68,1.45-4.83.94-9.2-2.77-12.57a10.28,10.28,0,0,0-7-2.84,12.92,12.92,0,0,0-6.28,1.77,39.45,39.45,0,0,0-7.68,5.92c-7.54,7.06-16.09,11.76-26.66,12-1.88,0-3.76,0-5.64,0-3.12,0-6.23,0-9.35,0l0-.37c-7.78.57-15.6.84-23.34,1.75-52.84,6.22-96.84,51.83-101.4,105-6.24,72.71,50.91,128.8,116.23,128.8a118,118,0,0,0,50.41-11.49c40.49-19.06,65.35-50.82,69.19-96.68,1-11.44.49-23,.89-34.49.26-7.44,2-14.1,9.79-17.62,8.54-3.86,11.23-9.94,7.53-18.46-2.28-5.26-5.93-10-9.36-14.66-4.91-6.68-5.1-10.51.29-16.74,4.12-4.76,8.67-9.14,12.72-13.95,4.63-5.51,7.43-11.89,5.94-19.22s-6.25-12-13.67-14.13a18.28,18.28,0,0,0-5-.75ZM707,540.87a12.12,12.12,0,0,0,2.74-.4c10.27-2.53,19.71-6.7,26.66-15.18a53.62,53.62,0,0,1,4.81-5.29,18.92,18.92,0,0,1,12.9-5.19,17.81,17.81,0,0,1,10.41,3.34,16.93,16.93,0,0,1,4.68,21.64c-2.92,5.41-7.29,10.16-11.53,14.73-8.64,9.3-8.72,10.66-1,20.73a39.21,39.21,0,0,1,6.22,11.26c2.55,7.77-.08,13.26-7.55,16.15-6.08,2.35-8.07,7.1-8.32,12.74-.37,8-.24,16.06-.12,24.09.81,54.36-42.53,95.84-90.24,102.74a111.71,111.71,0,0,1-16.07,1.17c-58.14,0-104.71-46.37-104-106.64.65-52.18,42.52-96.89,94.64-101,6.06-.48,12.13-.81,18.82-1.26a42.77,42.77,0,0,0,7.21.63c10.78,0,20.45-4.35,29-12.73,3.29-3.24,7-4.79,10.38-4.79a9.75,9.75,0,0,1,6.13,2.08c5.43,4.3,4.38,9.79,2.4,15.41-1.4,4-.91,5.81,1.84,5.81Z" transform="translate(-265.98 -191.39)"/><path class="cls-1" d="M640.65,728c-32.12,0-63.52-19.16-78.15-47.68a89.24,89.24,0,0,1-8.77-55.84A88.51,88.51,0,0,1,639.4,551h.23c3.12-.07,6.34-.14,9.51-.14,1.88,0,3.59,0,5.22.08l1.22,0a32.35,32.35,0,0,0,23.34-9.46l.86-.85c1.45-1.44,2.94-2.93,4.52-3.22a25.34,25.34,0,0,1,4.49-.45c2.11,0,3.62.38,4.5,1.12,1.89,1.62,2.73,6,2.19,8.66-.9,4.5-.81,6.9.33,8.3a4.32,4.32,0,0,0,3.56,1.32h0a20.85,20.85,0,0,0,4.78-.72,56.44,56.44,0,0,0,6.8-2.26l1.31-.5-1.1,1.37a53.92,53.92,0,0,1-5.29,6,53.15,53.15,0,0,1-10.62,8,4,4,0,0,1-1.89.38,11.41,11.41,0,0,1-4.66-1.17,7,7,0,0,1,0-2.24,12.74,12.74,0,0,0,0-3c-.15-.82-.27-1.7-.39-2.64-.39-3-.79-6-2.57-7.22a8.93,8.93,0,0,0-4.87-1.14c-2,0-4.52.44-5.66,1.68-9.13,9.89-20.53,10-32.59,10.19l-2,0c-34.4.52-63.55,22.22-72.54,54-8.65,30.57-1.25,57.66,21.41,78.33C604.4,709.1,621.08,716,639,716a80.9,80.9,0,0,0,32-7c29.83-12.85,45.82-35.69,47.52-67.9.27-5.15.07-10.39-.13-15.47-.06-1.8-.13-3.6-.18-5.4-.11-4.19.74-6.65,5.42-6.85a7,7,0,0,0,5.46-2.56,6.61,6.61,0,0,0,1-5.6c-1-4.28-2.52-9.68-5.69-13.56-3.85-4.72-3.7-8,.58-12.15a81.82,81.82,0,0,0,6.67-7.22c4.69-5.84,5.51-11.88,2.35-17.48a11.63,11.63,0,0,0-10.71-6.36,19.25,19.25,0,0,0-4.25.52c.76-1,1.52-1.93,2.25-2.88a88.35,88.35,0,0,1,7.47-8.8,13.53,13.53,0,0,1,9.49-4,13,13,0,0,1,7.75,2.57,13.08,13.08,0,0,1,3.84,17.33c-2.41,4.26-5.89,8-9.26,11.71l-.74.81c-7.13,7.78-7.26,10-1,18.36a38.54,38.54,0,0,1,5.56,10c1.21,3.41,1.32,5.9.36,7.84s-3,3.37-6.44,4.49c-7.56,2.46-7.69,8.61-7.81,14-.08,3.56,0,7.18.08,10.68a149.67,149.67,0,0,1-.28,17.2,84.13,84.13,0,0,1-23.83,51,96.1,96.1,0,0,1-52,27.43A76.13,76.13,0,0,1,640.65,728Z" transform="translate(-265.98 -191.39)"/><path d="M738.31,533.8a12.46,12.46,0,0,1,7.46,2.47,12.6,12.6,0,0,1,3.7,16.68c-2.39,4.21-5.85,8-9.19,11.62l-.75.81c-7.3,8-7.44,10.45-1.07,19a37.85,37.85,0,0,1,5.49,9.86c1.14,3.22,1.27,5.66.39,7.45s-2.9,3.18-6.16,4.24c-7.89,2.56-8,9.18-8.15,14.5-.08,3.57,0,7.2.08,10.71a150.7,150.7,0,0,1-.28,17.13,83.61,83.61,0,0,1-23.69,50.66,95.6,95.6,0,0,1-51.68,27.29,76,76,0,0,1-13.81,1.25c-31.94,0-63.16-19.05-77.7-47.41a88.71,88.71,0,0,1-8.73-55.53,88,88,0,0,1,85.19-73.08h.28c3.1-.07,6.3-.14,9.45-.14,1.88,0,3.58,0,5.21.08l1.23,0a33.25,33.25,0,0,0,23.69-9.6l.86-.85c1.33-1.33,2.83-2.83,4.26-3.09a25.35,25.35,0,0,1,4.4-.44c2,0,3.4.34,4.17,1,1.58,1.34,2.59,5.4,2,8.17-.94,4.67-.81,7.19.44,8.71a4.75,4.75,0,0,0,3.94,1.51,21.69,21.69,0,0,0,4.89-.73,53.67,53.67,0,0,0,6.46-2.13,54,54,0,0,1-5.19,5.89A53,53,0,0,1,695,567.8a3.61,3.61,0,0,1-1.65.32,10.82,10.82,0,0,1-4.23-1,11.87,11.87,0,0,1,0-1.87,12.8,12.8,0,0,0,0-3.1c-.15-.8-.27-1.68-.39-2.61-.4-3-.82-6.21-2.78-7.56a9.48,9.48,0,0,0-5.15-1.23c-1,0-4.45.13-6,1.84-9,9.73-20.27,9.88-32.23,10l-2,0c-34.62.53-64,22.37-73,54.36-8.71,30.77-1.25,58,21.55,78.84,15,13.74,31.85,20.7,49.94,20.7a81.55,81.55,0,0,0,32.21-7.07c30-12.93,46.11-35.92,47.81-68.34.28-5.16.08-10.41-.12-15.49-.06-1.81-.13-3.61-.18-5.42-.11-4,.65-6.15,4.94-6.33a7.53,7.53,0,0,0,5.84-2.76,7.13,7.13,0,0,0,1.1-6c-1-4.32-2.56-9.8-5.79-13.76-3.69-4.51-3.55-7.52.53-11.47a80.16,80.16,0,0,0,6.72-7.26c4.83-6,5.66-12.25,2.39-18a12.1,12.1,0,0,0-11.14-6.62,17.91,17.91,0,0,0-3,.27l1.42-1.83a86.05,86.05,0,0,1,7.42-8.74,13,13,0,0,1,9.14-3.84m0-1a14,14,0,0,0-9.84,4.13c-4,3.9-7.17,8.57-10.72,12.9a20,20,0,0,1,5.6-.89,11.17,11.17,0,0,1,10.27,6.11c3.33,5.89,1.83,11.79-2.3,16.92a81.7,81.7,0,0,1-6.63,7.17c-4.28,4.15-4.75,7.76-.61,12.83,2.94,3.6,4.51,8.68,5.59,13.35.94,4.09-1.52,7.36-6,7.55-5.15.22-6,3.18-5.9,7.36.19,6.94.67,13.91.31,20.83C716.37,673.3,700,696,670.85,708.53a80.38,80.38,0,0,1-31.81,7c-17.67,0-34.35-6.83-49.26-20.43-23-21-29.76-47.83-21.27-77.83,8.93-31.59,38-53.12,72.07-53.64,12.75-.19,25.13.22,34.91-10.37.93-1,3.12-1.52,5.29-1.52a8.74,8.74,0,0,1,4.59,1c2.12,1.46,2.1,6.2,2.75,9.54.37,1.89-.47,5.16.36,5.57a11.62,11.62,0,0,0,4.88,1.23,4.61,4.61,0,0,0,2.13-.44,52.74,52.74,0,0,0,10.72-8.1c2.83-2.63,5.09-5.87,7.61-8.84a103,103,0,0,1-9.79,3.38,20.69,20.69,0,0,1-4.66.7c-4.07,0-4.67-2.67-3.4-9,.58-2.89-.35-7.42-2.36-9.14-1.09-.93-2.9-1.24-4.82-1.24a25.66,25.66,0,0,0-4.58.46c-2.07.38-3.93,2.56-5.64,4.19a32,32,0,0,1-23,9.33l-1.2,0c-1.75-.06-3.5-.08-5.24-.08-3.25,0-6.5.08-9.75.15-22.91.49-42.81,8.67-59.49,24.24-29,27.08-36.15,70.12-17.84,105.83,14.89,29,46.89,48,78.59,48a76.51,76.51,0,0,0,14-1.27c41.38-7.67,72.46-39.58,76.17-78.83.88-9.23,0-18.61.21-27.92.12-5.67.42-11.28,7.46-13.57s8.85-6.07,6.4-13a39.15,39.15,0,0,0-5.63-10.12c-6-8.1-5.94-10.14,1-17.72,3.63-4,7.44-8,10.07-12.61,3.7-6.53,1.65-13.82-4-18a13.53,13.53,0,0,0-8.05-2.67Z" transform="translate(-265.98 -191.39)"/><path class="cls-1" d="M640.42,699.46a58.47,58.47,0,0,1-41.61-17.59,59.81,59.81,0,0,1,42-102.32,59.6,59.6,0,0,1,59.82,60c0,32.62-26.65,59.52-59.46,60Zm.17-72.06a12,12,0,0,0,.26,24h.28A11.94,11.94,0,0,0,653,639.13a12.22,12.22,0,0,0-12.06-11.73Z" transform="translate(-265.98 -191.39)"/><path d="M640.84,580.05a59.09,59.09,0,0,1,59.3,59.46c0,32.35-26.43,59-59,59.45h-.75a57.91,57.91,0,0,1-41.25-17.45,59.6,59.6,0,0,1-17.59-42.6,59.13,59.13,0,0,1,59.24-58.86h0m0,71.8h.29a12.44,12.44,0,0,0,12.33-12.72,12.72,12.72,0,0,0-12.56-12.22h-.33a12.47,12.47,0,0,0,.27,24.94m0-72.8a60.13,60.13,0,0,0-60.24,59.85C580.4,672.2,607.7,700,640.42,700h.77c33-.44,60-27.61,59.95-60.45a60.08,60.08,0,0,0-60.3-60.46Zm0,71.8a11.48,11.48,0,0,1-.24-23h.3a11.68,11.68,0,0,1,11.56,11.24,11.5,11.5,0,0,1-11.35,11.7Z" transform="translate(-265.98 -191.39)"/></svg>